<svg width="13" height="14" viewBox="0 0 13 14" fill="none" xmlns="http://www.w3.org/2000/svg">
<path fill-rule="evenodd" clip-rule="evenodd" d="M0 6.75146C0 5.02756 0.684819 3.37426 1.90381 2.15527C3.12279 0.936284 4.77609 0.251465 6.5 0.251465C8.22391 0.251465 9.87721 0.936284 11.0962 2.15527C12.3152 3.37426 13 5.02756 13 6.75146C13 8.47537 12.3152 10.1287 11.0962 11.3477C9.87721 12.5666 8.22391 13.2515 6.5 13.2515C4.77609 13.2515 3.12279 12.5666 1.90381 11.3477C0.684819 10.1287 0 8.47537 0 6.75146H0ZM6.12907 9.53347L9.87133 4.8552L9.19533 4.3144L6.00427 8.30193L3.744 6.41866L3.18933 7.08426L6.12907 9.53433V9.53347Z" fill="black"/>
</svg>
