<svg width="24" height="25" viewBox="0 0 24 25" fill="none" xmlns="http://www.w3.org/2000/svg">
<g clip-path="url(#clip0_8851_15126)">
<path d="M12 24.4297C18.6274 24.4297 24 19.0571 24 12.4297C24 5.80227 18.6274 0.429688 12 0.429688C5.37258 0.429688 0 5.80227 0 12.4297C0 19.0571 5.37258 24.4297 12 24.4297Z" fill="#F0F0F0"/>
<path d="M0 12.4303C0 17.5899 3.2565 21.9884 7.82611 23.684V1.17676C3.2565 2.87223 0 7.27079 0 12.4303Z" fill="#6DA544"/>
<path d="M23.9999 12.4303C23.9999 7.27079 20.7434 2.87223 16.1738 1.17676V23.684C20.7434 21.9884 23.9999 17.5899 23.9999 12.4303Z" fill="#6DA544"/>
</g>
<defs>
<clipPath id="clip0_8851_15126">
<rect width="24" height="24" fill="white" transform="translate(0 0.429688)"/>
</clipPath>
</defs>
</svg>
