<svg width="24" height="25" viewBox="0 0 24 25" fill="none" xmlns="http://www.w3.org/2000/svg">
<path d="M19.8822 5.31127L19.1463 4.57533C18.9383 4.36733 18.5543 4.39934 18.3143 4.68729L15.7541 7.23125C14.602 6.73531 13.3382 6.49531 12.0101 6.49531C8.05798 6.51125 4.6342 8.81522 2.98608 12.1274C2.89006 12.3354 2.89006 12.5913 2.98608 12.7673C3.75402 14.3354 4.90609 15.6314 6.34609 16.6073L4.2501 18.7353C4.0101 18.9753 3.97809 19.3593 4.13813 19.5673L4.87408 20.3032C5.08207 20.5112 5.46606 20.4792 5.70606 20.1913L19.754 6.14338C20.058 5.90352 20.09 5.51955 19.882 5.31154L19.8822 5.31127ZM12.8581 10.1432C12.5861 10.0791 12.2981 9.99918 12.0261 9.99918C10.6661 9.99918 9.57818 11.0872 9.57818 12.4471C9.57818 12.7191 9.64219 13.0071 9.72215 13.2791L8.65003 14.3351C8.33008 13.7752 8.15409 13.1511 8.15409 12.4471C8.15409 10.3192 9.86611 8.60715 11.9941 8.60715C12.6982 8.60715 13.3221 8.78313 13.8821 9.10309L12.8581 10.1432Z" fill="#666666" fill-opacity="0.8"/>
<path d="M21.0347 12.1276C20.4747 11.0076 19.7386 9.99963 18.8267 9.18359L15.8507 12.1276V12.4476C15.8507 14.5755 14.1387 16.2876 12.0107 16.2876H11.6907L9.80273 18.1755C10.5068 18.3195 11.2427 18.4155 11.9627 18.4155C15.9149 18.4155 19.3386 16.1116 20.9868 12.7834C21.1307 12.5594 21.1307 12.3354 21.0347 12.1274L21.0347 12.1276Z" fill="#666666" fill-opacity="0.8"/>
</svg>
