<svg width="71" height="36" viewBox="0 0 71 36" fill="none" xmlns="http://www.w3.org/2000/svg">
<path d="M25.8109 0.676143C21.7123 0.660997 17.0957 1.12015 11.7229 2.27243C11.0887 2.39598 4.97881 7.24999 3.33158 10.6002C1.68434 13.9506 1.12086 20.3279 1.12086 20.3279C0.676137 22.9396 0.946288 27.2563 1.07035 27.676C1.23776 28.5848 2.18358 29.3474 3.80806 29.8989C3.99751 25.7025 6.49441 22.4326 9.51358 22.4274C12.6747 22.4274 15.2371 25.9966 15.2371 30.3989C15.2351 30.7504 15.2164 31.1014 15.181 31.4495C15.2655 31.4511 15.3613 31.4543 15.4415 31.4555L49.6777 31.8521C49.6129 31.3729 49.5797 30.8865 49.5785 30.3989C49.5785 25.9966 52.1412 22.4274 55.3021 22.4274C58.4632 22.4274 61.0256 25.9966 61.0256 30.3989C61.0256 30.9306 60.9876 31.4611 60.9117 31.982L69.8098 32.085C69.9984 27.5389 70.7914 22.7644 68.8048 18.7887C68.0241 17.2263 64.236 14.3968 54.6347 12.28C49.6741 8.81041 44.8327 4.8765 39.5603 2.62217C35.4952 1.49919 31.0809 0.695474 25.8109 0.676143ZM23.3502 3.06439C24.2085 3.07316 24.9958 3.12218 25.6417 3.22581L26.6844 12.8617C20.7562 11.8467 14.7154 10.936 11.5221 7.38133C11.5722 6.28525 12.6611 4.69853 13.8839 4.09191C14.5765 3.74834 19.6314 3.02653 23.3504 3.06439H23.3502ZM28.3047 3.13374C31.8836 3.18635 37.1808 3.66982 40.8252 5.91179C42.5712 7.03776 45.8582 9.67312 48.0565 12L47.1479 14.0995C41.1802 13.7248 33.2271 13.2619 29.9629 12.7483L28.3047 3.13374ZM9.51358 25.616C8.60279 25.616 7.7293 26.1199 7.08528 27.0169C6.44126 27.9138 6.07945 29.1304 6.07945 30.3989C6.07945 31.6674 6.44126 32.8839 7.08528 33.7809C7.7293 34.6778 8.60279 35.1817 9.51358 35.1817C10.4244 35.1817 11.2978 34.6778 11.9419 33.7809C12.5859 32.8839 12.9477 31.6674 12.9477 30.3989C12.9477 29.1304 12.5859 27.9138 11.9419 27.0169C11.2978 26.1199 10.4244 25.616 9.51358 25.616ZM55.3019 25.616C54.3911 25.616 53.5177 26.1199 52.8736 27.0169C52.2296 27.9138 51.8678 29.1304 51.8678 30.3989C51.8678 31.6674 52.2296 32.8839 52.8736 33.7809C53.5177 34.6778 54.3911 35.1817 55.3019 35.1817C56.2127 35.1817 57.0862 34.6778 57.7302 33.7809C58.3742 32.8839 58.7361 31.6674 58.7361 30.3989C58.7361 29.1304 58.3742 27.9138 57.7302 27.0169C57.0862 26.1199 56.2127 25.616 55.3019 25.616Z" fill="#F8F9FA"/>
</svg>
