<svg width="70" height="36" viewBox="0 0 70 36" fill="none" xmlns="http://www.w3.org/2000/svg">
<path d="M47.5909 0.675781H30.2784V12.1778H0.375V26.5553H6.67045C6.67045 28.8431 7.66536 31.0373 9.4363 32.6551C11.2072 34.2729 13.6091 35.1817 16.1136 35.1817C18.6181 35.1817 21.02 34.2729 22.791 32.6551C24.5619 31.0373 25.5568 28.8431 25.5568 26.5553H44.4432C44.4432 28.8431 45.4381 31.0373 47.209 32.6551C48.98 34.2729 51.3819 35.1817 53.8864 35.1817C56.3909 35.1817 58.7928 34.2729 60.5637 32.6551C62.3346 31.0373 63.3295 28.8431 63.3295 26.5553H69.625V17.9288C69.625 14.737 66.8235 12.1778 63.3295 12.1778H57.0341L47.5909 0.675781ZM35 4.98903H46.017L52.1866 12.1778H35V4.98903ZM16.1136 22.242C17.3659 22.242 18.5668 22.6964 19.4523 23.5053C20.3378 24.3142 20.8352 25.4113 20.8352 26.5553C20.8352 27.6992 20.3378 28.7963 19.4523 29.6052C18.5668 30.4141 17.3659 30.8685 16.1136 30.8685C14.8614 30.8685 13.6604 30.4141 12.775 29.6052C11.8895 28.7963 11.392 27.6992 11.392 26.5553C11.392 25.4113 11.8895 24.3142 12.775 23.5053C13.6604 22.6964 14.8614 22.242 16.1136 22.242ZM53.8864 22.242C55.1386 22.242 56.3396 22.6964 57.225 23.5053C58.1105 24.3142 58.608 25.4113 58.608 26.5553C58.608 27.6992 58.1105 28.7963 57.225 29.6052C56.3396 30.4141 55.1386 30.8685 53.8864 30.8685C52.6341 30.8685 51.4332 30.4141 50.5477 29.6052C49.6622 28.7963 49.1648 27.6992 49.1648 26.5553C49.1648 25.4113 49.6622 24.3142 50.5477 23.5053C51.4332 22.6964 52.6341 22.242 53.8864 22.242Z" fill="#005BBA"/>
</svg>
