<svg width="71" height="36" viewBox="0 0 71 36" fill="none" xmlns="http://www.w3.org/2000/svg">
<path d="M65.7969 12.1728H58.036L46.3203 1.79915C45.9199 1.44174 45.4432 1.15837 44.918 0.965523C44.3927 0.772675 43.8295 0.674192 43.2609 0.675801H12.8531C12.1422 0.676966 11.4425 0.833169 10.816 1.13061C10.1894 1.42804 9.6553 1.85756 9.26074 2.38119L1.23748 13.0255C1.00174 13.3409 0.875706 13.7107 0.875 14.0889L0.875 25.5859C0.875 26.6023 1.331 27.5771 2.14268 28.2958C2.95436 29.0145 4.05523 29.4182 5.20312 29.4182H9.80176C10.2785 31.0669 11.3614 32.5282 12.8797 33.5718C14.3981 34.6153 16.2654 35.1817 18.1875 35.1817C20.1096 35.1817 21.9769 34.6153 23.4953 33.5718C25.0136 32.5282 26.0965 31.0669 26.5732 29.4182H44.4268C44.9035 31.0669 45.9864 32.5282 47.5047 33.5718C49.0231 34.6153 50.8904 35.1817 52.8125 35.1817C54.7346 35.1817 56.6019 34.6153 58.1203 33.5718C59.6386 32.5282 60.7215 31.0669 61.1982 29.4182H65.7969C66.9448 29.4182 68.0456 29.0145 68.8573 28.2958C69.669 27.5771 70.125 26.6023 70.125 25.5859V16.0051C70.125 14.9887 69.669 14.0139 68.8573 13.2952C68.0456 12.5765 66.9448 12.1728 65.7969 12.1728ZM12.8531 4.50812H43.2609L51.9171 12.1728H7.09668L12.8531 4.50812ZM18.1875 31.3344C17.3315 31.3344 16.4947 31.1096 15.7829 30.6885C15.0712 30.2674 14.5164 29.6689 14.1888 28.9686C13.8612 28.2684 13.7755 27.4978 13.9425 26.7544C14.1095 26.011 14.5218 25.3282 15.1271 24.7922C15.7324 24.2562 16.5036 23.8913 17.3431 23.7434C18.1827 23.5955 19.0529 23.6714 19.8438 23.9615C20.6347 24.2515 21.3106 24.7427 21.7862 25.3729C22.2618 26.0032 22.5156 26.7441 22.5156 27.5021C22.5156 28.5185 22.0596 29.4932 21.2479 30.2119C20.4363 30.9306 19.3354 31.3344 18.1875 31.3344ZM52.8125 31.3344C51.9565 31.3344 51.1197 31.1096 50.4079 30.6885C49.6962 30.2674 49.1414 29.6689 48.8138 28.9686C48.4862 28.2684 48.4005 27.4978 48.5675 26.7544C48.7345 26.011 49.1468 25.3282 49.7521 24.7922C50.3574 24.2562 51.1286 23.8913 51.9681 23.7434C52.8077 23.5955 53.6779 23.6714 54.4688 23.9615C55.2597 24.2515 55.9356 24.7427 56.4112 25.3729C56.8868 26.0032 57.1406 26.7441 57.1406 27.5021C57.1406 28.5185 56.6846 29.4932 55.8729 30.2119C55.0613 30.9306 53.9604 31.3344 52.8125 31.3344ZM65.7969 25.5859H61.1982C60.7215 23.9372 59.6386 22.4759 58.1203 21.4324C56.6019 20.3888 54.7346 19.8224 52.8125 19.8224C50.8904 19.8224 49.0231 20.3888 47.5047 21.4324C45.9864 22.4759 44.9035 23.9372 44.4268 25.5859H26.5732C26.0965 23.9372 25.0136 22.4759 23.4953 21.4324C21.9769 20.3888 20.1096 19.8224 18.1875 19.8224C16.2654 19.8224 14.3981 20.3888 12.8797 21.4324C11.3614 22.4759 10.2785 23.9372 9.80176 25.5859H5.20312V16.0051H65.7969V25.5859Z" fill="#005BBA"/>
</svg>
