<svg width="22" height="22" viewBox="0 0 22 22" fill="none" xmlns="http://www.w3.org/2000/svg">
<path d="M0.546792 8.7767L20.3678 0.4067C20.4595 0.367895 20.5607 0.357368 20.6585 0.376468C20.7562 0.395568 20.8461 0.443425 20.9164 0.513904C20.9868 0.584383 21.0345 0.674272 21.0535 0.772049C21.0724 0.869825 21.0617 0.971034 21.0228 1.0627L12.6538 20.8827C12.6119 20.9817 12.5391 21.0645 12.4464 21.1189C12.3537 21.1733 12.246 21.1963 12.1391 21.1846C12.0323 21.173 11.932 21.1272 11.8533 21.0541C11.7745 20.9809 11.7214 20.8844 11.7018 20.7787L10.0138 11.4967C10.0101 11.4768 10.0005 11.4586 9.98619 11.4443C9.97191 11.43 9.95364 11.4204 9.93379 11.4167L0.651792 9.7287C0.546049 9.70926 0.449389 9.65626 0.376148 9.57755C0.302908 9.49884 0.256988 9.39862 0.245202 9.29175C0.233415 9.18489 0.256389 9.07707 0.310716 8.98429C0.365042 8.89151 0.447827 8.81872 0.546792 8.7767Z" fill="#0064CC"/>
</svg>
