<svg width="361" height="301" viewBox="0 0 361 301" fill="none" xmlns="http://www.w3.org/2000/svg">
<path d="M258.104 0.125H100.695C97.4268 0.125 94.7773 2.92322 94.7773 6.375V256.688C94.7773 260.139 97.4268 262.938 100.695 262.938H258.104C261.373 262.938 264.022 260.139 264.022 256.688V6.375C264.022 2.92322 261.373 0.125 258.104 0.125Z" fill="#F2F6FB"/>
<path d="M105.282 12.6331C106.834 12.6331 108.092 11.4438 108.092 9.97681C108.092 8.5098 106.834 7.32056 105.282 7.32056C103.729 7.32056 102.471 8.5098 102.471 9.97681C102.471 11.4438 103.729 12.6331 105.282 12.6331Z" fill="#FF5645"/>
<path d="M114.602 12.6331C116.073 12.6331 117.265 11.4438 117.265 9.97681C117.265 8.5098 116.073 7.32056 114.602 7.32056C113.132 7.32056 111.939 8.5098 111.939 9.97681C111.939 11.4438 113.132 12.6331 114.602 12.6331Z" fill="#FFCB3D"/>
<path d="M123.626 12.6331C125.015 12.6331 126.141 11.4438 126.141 9.97681C126.141 8.5098 125.015 7.32056 123.626 7.32056C122.237 7.32056 121.111 8.5098 121.111 9.97681C121.111 11.4438 122.237 12.6331 123.626 12.6331Z" fill="#3ABF7C"/>
<path d="M166.38 7.32056H192.714C193.204 7.32056 193.602 7.74029 193.602 8.25806V11.6956C193.602 12.2133 193.204 12.6331 192.714 12.6331H166.38C165.89 12.6331 165.493 12.2133 165.493 11.6956V8.25806C165.493 7.74029 165.89 7.32056 166.38 7.32056ZM241.535 7.32056H255.737C256.227 7.32056 256.625 7.74029 256.625 8.25806V11.6956C256.625 12.2133 256.227 12.6331 255.737 12.6331H241.535C241.044 12.6331 240.647 12.2133 240.647 11.6956V8.25806C240.647 7.74029 241.044 7.32056 241.535 7.32056ZM222.006 7.32056H235.913C236.403 7.32056 236.8 7.74029 236.8 8.25806V11.6956C236.8 12.2133 236.403 12.6331 235.913 12.6331H222.006C221.516 12.6331 221.119 12.2133 221.119 11.6956V8.25806C221.119 7.74029 221.516 7.32056 222.006 7.32056ZM147.148 90.5399H212.242C212.569 90.5399 212.834 90.8197 212.834 91.1649V96.4849C212.834 96.83 212.569 97.1099 212.242 97.1099H147.148C146.821 97.1099 146.556 96.83 146.556 96.4849V91.1649C146.556 90.8197 146.821 90.5399 147.148 90.5399ZM135.313 79.9028H223.486C223.813 79.9028 224.077 80.1827 224.077 80.5278V85.8478C224.077 86.193 223.813 86.4728 223.486 86.4728H135.313C134.986 86.4728 134.721 86.193 134.721 85.8478V80.5278C134.721 80.1827 134.986 79.9028 135.313 79.9028ZM105.133 114.498C105.133 113.809 105.665 113.25 106.317 113.25H253.073C253.727 113.25 254.257 113.809 254.257 114.498V215.87C254.257 216.559 253.725 217.118 253.073 217.118H106.317C105.663 217.118 105.133 216.559 105.133 215.87V114.498ZM106.058 225.125H173.74C174.267 225.125 174.459 225.183 174.651 225.292C174.844 225.401 174.996 225.561 175.099 225.764C175.202 225.968 175.257 226.17 175.257 226.727V247.925C175.257 248.482 175.202 248.684 175.099 248.888C174.996 249.092 174.844 249.252 174.651 249.361C174.459 249.47 174.267 249.528 173.74 249.528H106.058C105.531 249.528 105.339 249.47 105.146 249.361C104.954 249.252 104.802 249.092 104.699 248.888C104.596 248.684 104.541 248.482 104.541 247.925V226.727C104.541 226.17 104.596 225.968 104.699 225.764C104.802 225.561 104.954 225.401 105.146 225.292C105.339 225.183 105.531 225.125 106.058 225.125ZM185.059 225.125H252.74C253.268 225.125 253.459 225.183 253.652 225.292C253.845 225.401 253.996 225.561 254.099 225.764C254.203 225.968 254.257 226.17 254.257 226.727V247.925C254.257 248.482 254.203 248.684 254.099 248.888C253.996 249.092 253.845 249.252 253.652 249.361C253.459 249.47 253.268 249.528 252.74 249.528H185.059C184.531 249.528 184.34 249.47 184.147 249.361C183.954 249.252 183.803 249.092 183.7 248.888C183.597 248.684 183.542 248.482 183.542 247.925V226.727C183.542 226.17 183.597 225.968 183.7 225.764C183.803 225.561 183.954 225.401 184.147 225.292C184.34 225.183 184.531 225.125 185.059 225.125Z" fill="#E1E5F0"/>
<path d="M204.535 148.279C208.855 148.279 212.357 144.565 212.357 139.983C212.357 135.402 208.855 131.688 204.535 131.688C200.215 131.688 196.713 135.402 196.713 139.983C196.713 144.565 200.215 148.279 204.535 148.279Z" fill="#F2F6FB"/>
<path d="M179.548 72.0496V70.7996C181.194 70.7996 182.811 70.5727 184.37 70.1293L184.678 71.3363C183.019 71.8082 181.298 72.0496 179.548 72.0496ZM189.453 69.2287L188.856 68.1491C190.262 67.2825 191.555 66.2226 192.699 64.9997L193.541 65.8785C192.323 67.1793 190.948 68.3067 189.453 69.2287ZM196.667 61.5218L195.638 60.9042C196.441 59.4118 197.055 57.8126 197.461 56.143L198.607 56.454C198.175 58.2313 197.521 59.9335 196.667 61.5218ZM199.223 51.001L198.04 51.0168C198.019 49.2797 197.783 47.575 197.343 45.9338L198.482 45.5932C198.95 47.3398 199.201 49.1537 199.223 51.001ZM196.423 40.5751L195.409 41.2192C194.57 39.7458 193.55 38.3944 192.377 37.2012L193.198 36.301C194.446 37.5701 195.531 39.0076 196.423 40.5751ZM189.034 33.0574L188.463 34.1521C187.04 33.3236 185.518 32.6963 183.932 32.289L184.212 31.0744C185.9 31.5079 187.52 32.1757 189.034 33.0574ZM179.042 30.4939L179.072 31.7435C177.428 31.7874 175.817 32.0583 174.268 32.5449L173.93 31.3467C175.579 30.8289 177.294 30.5406 179.042 30.4939ZM169.207 33.5857L169.83 34.6485C168.446 35.5533 167.179 36.6481 166.065 37.9019L165.202 37.0462C166.387 35.7127 167.734 34.5482 169.207 33.5857ZM162.184 41.486L163.228 42.0752C162.462 43.5883 161.888 45.2035 161.523 46.8846L160.37 46.6053C160.758 44.8157 161.369 43.0964 162.184 41.486ZM159.887 52.0723L161.069 52.0248C161.132 53.7593 161.409 55.4576 161.89 57.0878L160.76 57.4598C160.248 55.7246 159.953 53.9173 159.887 52.0723ZM162.941 62.4178L163.939 61.7463C164.814 63.1963 165.866 64.5197 167.067 65.6806L166.268 66.6028C164.991 65.3679 163.871 63.9603 162.941 62.4178ZM170.51 69.7322L171.055 68.6222C172.497 69.4112 174.033 69.9966 175.63 70.3604L175.38 71.5823C173.68 71.195 172.045 70.5719 170.51 69.7322ZM191.935 198.513L181.669 198.562L181.698 198.513H136.858C134.081 198.513 133.024 196.497 134.497 194.01L165.139 142.277C166.612 139.79 169.051 139.755 170.587 142.204L193.356 178.792L201.411 165.165C202.71 162.968 204.864 162.934 206.224 165.09L224.872 194.66C226.231 196.815 225.359 198.374 222.904 198.294L209.267 198.431L204.96 198.451L204.996 198.513C204.996 198.513 202.747 198.513 199.967 198.513H191.935Z" fill="#3C41FF"/>
<path opacity="0.176986" d="M204.873 198.584C204.873 198.584 202.623 198.584 199.844 198.584H136.735C133.958 198.584 132.9 196.568 134.373 194.081L165.016 142.348C166.489 139.861 168.927 139.826 170.464 142.275L196.961 184.854" fill="#444444"/>
<path d="M358.705 300.437H328.377C327.667 300.437 327.046 299.897 327.046 299.248V298.815C327.046 298.166 327.638 297.625 328.377 297.625H358.705C359.415 297.625 360.037 298.166 360.037 298.815V299.248C360.037 299.897 359.445 300.437 358.705 300.437ZM289.025 297.625C289.76 297.625 290.357 298.255 290.357 299.031C290.357 299.808 289.76 300.437 289.025 300.437H240.796C240.061 300.437 239.465 299.808 239.465 299.031C239.465 298.255 240.061 297.625 240.796 297.625H289.025Z" fill="#9105C6"/>
<path d="M358.866 297.634C358.813 297.628 358.759 297.625 358.705 297.625H328.478L330.87 281.683L352.055 278.652L358.866 297.634ZM289.201 297.637C289.143 297.629 289.084 297.625 289.024 297.625H241.005C240.973 297.454 240.957 297.238 240.962 296.959C240.995 296.741 240.999 296.491 241.062 296.242C241.442 294.749 241.902 293.757 243.249 292.876C244.595 291.994 245.969 291.207 247.401 290.514C252.682 287.892 254.487 287.926 257.959 285.521C259.396 284.516 260.718 283.352 261.952 282.094C262.775 281.255 264.454 279.891 266.991 278.004L289.803 278.543L289.201 297.637Z" fill="#474961"/>
<path d="M321.309 106.13C323.56 110.761 329.656 125.129 335.097 154.378C335.545 156.804 335.976 159.167 336.388 161.461L336.43 161.408C343.887 191.084 349.063 211.86 351.959 223.735C354.932 235.931 350.809 235.741 353.064 246.001C354.364 251.917 358.72 256.674 358.682 262.834C358.676 263.807 358.698 265.752 358.749 268.67C358.839 273.882 355.233 278.345 350.345 279.071L330.604 282.001C325.264 282.793 320.327 278.864 319.576 273.224C319.57 273.172 319.563 273.12 319.557 273.068C319.024 268.569 318.755 265.894 318.748 265.044C318.734 263.282 318.713 261.678 318.681 260.217C317.543 255.301 316.358 250.184 315.404 246.06C314.117 243.96 312.603 241.057 311.41 236.361C310.625 233.271 308.84 221.246 306.056 200.284C306.002 200.003 305.901 199.137 305.751 197.685L301.853 182.535C301.691 184.304 301.525 186.094 301.357 187.9C301.701 213.007 301.692 227.112 301.33 230.214C300.192 239.976 296.786 242.663 296.687 245.731C296.589 248.736 297.021 253.115 297.843 259.696C297.949 260.539 298.034 263.228 298.1 267.761C298.1 267.813 298.101 267.866 298.101 267.918C298.101 272.483 295.293 276.355 291.402 277.713C288.954 280.066 285.012 278.275 274.663 278.35C274.663 278.35 273.07 278.365 270.967 278.231L268.402 278.231C266.883 278.231 265.438 277.863 264.148 277.202C262.924 276.84 261.912 276.364 261.348 275.739C260.877 275.201 260.58 274.592 260.58 274.592C260.44 274.26 260.339 273.932 260.266 273.623C259.448 272.323 258.899 270.81 258.71 269.167C258.375 266.27 258.141 264.34 258.006 263.377C257.158 257.283 260.844 251.932 261.352 245.883C262.233 235.391 258.175 236.185 259.512 223.671C260.803 211.599 263.244 197.665 266.837 181.868C268.915 156.988 271.65 129.034 274.663 119.64C274.713 119.472 276.592 112.814 279.309 108.113C279.392 108.207 279.478 108.298 279.567 108.385C279.907 108.722 280.246 108.966 280.583 109.147C281.259 109.573 281.819 109.719 281.819 109.719C281.819 109.719 281.847 109.718 281.875 109.749C281.875 109.749 300.015 114.54 318.014 109.082L318.069 109.05C318.069 109.05 318.624 108.884 319.286 108.434C319.589 108.241 319.947 107.953 320.276 107.634C320.688 107.208 321.028 106.696 321.309 106.13Z" fill="#8F4AFF"/>
<path opacity="0.176986" d="M283.19 110.054L292.661 146.938L301.844 182.634C301.684 184.371 301.522 186.128 301.357 187.9C301.701 213.007 301.692 227.112 301.33 230.214C300.192 239.976 296.786 242.663 296.687 245.731C296.589 248.736 297.021 253.115 297.843 259.696C297.949 260.539 298.034 263.228 298.1 267.761C298.1 267.813 298.101 267.866 298.101 267.918C298.101 272.483 295.293 276.355 291.402 277.713C288.954 280.066 285.012 278.275 274.663 278.35C274.663 278.35 273.07 278.365 270.967 278.231L268.402 278.231C266.883 278.231 265.438 277.863 264.148 277.202C262.924 276.84 261.912 276.364 261.348 275.739C260.877 275.201 260.58 274.592 260.58 274.592C260.44 274.26 260.339 273.932 260.266 273.623C259.448 272.323 258.899 270.81 258.71 269.167C258.375 266.27 258.141 264.34 258.006 263.377C257.158 257.283 260.844 251.932 261.352 245.883C262.233 235.391 258.175 236.185 259.512 223.671C260.803 211.599 263.244 197.665 266.837 181.868C268.915 156.988 271.65 129.034 274.663 119.64C274.713 119.472 276.592 112.814 279.309 108.113C279.392 108.207 279.478 108.298 279.567 108.385C279.907 108.722 280.246 108.966 280.583 109.147C281.259 109.573 281.819 109.719 281.819 109.719C281.819 109.719 281.847 109.718 281.875 109.749C281.875 109.749 282.338 109.871 283.19 110.054Z" fill="#444444"/>
<path d="M321.622 66.9009C321.656 67.2601 321.689 67.6311 321.722 68.0139L321.723 68.1076L321.804 69.6376C322.281 86.6626 322.519 94.3157 322.652 97.3137C322.652 97.3137 322.629 97.6266 322.665 98.0948C322.743 99.4686 322.865 105.123 320.398 107.669C320.069 107.988 319.711 108.276 319.408 108.469C318.746 108.919 318.192 109.085 318.192 109.085L318.137 109.117C300.138 114.575 281.997 109.784 281.997 109.784C281.691 109.698 281.395 109.611 280.832 109.314C280.279 109.023 279.754 108.594 279.585 108.427C277.064 105.973 277.103 100.31 277.136 98.9342C277.128 98.4967 277.123 98.153 277.123 98.153C277.154 95.2934 277.143 88.3486 277.069 73.2822C270.003 72.5899 267.142 70.437 268.487 66.8237C271.542 58.6157 273.565 50.7399 285.677 49.8299C288.649 48.2649 291.894 47.741 294.153 47.5814C295.462 47.4948 296.437 47.508 296.828 47.5321C296.995 47.529 297.218 47.5561 297.637 47.5797C298.055 47.6032 298.53 47.6257 299.06 47.6472C299.588 47.6062 300.062 47.5662 300.479 47.5273C300.896 47.4883 301.091 47.4535 301.286 47.4499C301.704 47.4109 302.65 47.3622 303.961 47.4006C304.273 47.4111 304.605 47.4277 304.952 47.4522C305.127 47.4097 305.305 47.3679 305.485 47.3268C317.934 44.4892 321.87 51.6733 326.925 58.8976C328.948 61.7893 327.18 64.457 321.622 66.9009Z" fill="#F0549E"/>
<path opacity="0.176986" d="M285.49 49.8289C283.76 50.7496 282.126 52.0255 280.838 53.7905C280.266 54.5824 279.533 55.7836 278.976 57.5129C278.897 57.7644 278.817 57.9846 278.737 58.2361C278.551 58.7709 278.152 59.9034 277.81 61.1287C277.442 62.5107 277.151 65.1414 276.961 68.8017L276.962 68.8955L276.932 70.4275C276.937 71.3925 276.941 72.3273 276.946 73.2327C270.054 72.5155 267.272 70.3707 268.602 66.7983C271.631 58.6592 273.646 50.8467 285.49 49.8289Z" fill="#444444"/>
<path d="M319.579 143.348C319.332 143.55 319.186 143.64 319.186 143.64C315.302 142.952 320.856 127.758 322.511 123.457L308.569 70.7835C317.224 68.8508 322.933 66.7443 325.697 64.4637C333.213 96.4073 337.275 116.895 337.881 125.928C337.928 126.214 337.956 126.521 337.966 126.849C338.128 132.105 336.475 140.149 333.005 150.981C332.978 151.045 323.955 155.724 317.606 151.768L319.579 143.348ZM281.612 20.0313C281.624 20.0139 281.637 19.9963 281.649 19.9783C284.246 16.9044 289.026 16.9952 291.179 17.4856C291.441 17.5461 292.37 17.7749 293.715 18.0184C294.444 18.1622 295.033 18.2276 295.383 18.2978C299.748 18.971 301.54 18.6043 303.624 20.0925C304.014 20.3557 304.9 21.0197 305.616 22.1989C307.634 25.5338 306.679 29.4498 306.414 30.6145C305.532 34.0986 303.373 36.0586 302.695 36.8945C302.191 37.5266 301.49 38.2323 300.809 38.8697L301.468 48.9556C301.475 49.1742 301.394 49.3961 301.22 49.4963C300.467 50.0244 299.392 50.6269 298.042 50.9894C295.607 51.6733 293.493 51.3135 292.298 50.9823C292.059 50.9286 291.874 50.6853 291.866 50.4355L291.508 43.8215C291.249 43.8929 290.973 43.9671 290.678 44.0445C288.078 44.7614 288.235 44.6845 288.052 44.7271C286.148 45.0185 284.566 44.78 284.278 44.6852C283.227 44.4743 282.202 43.4178 281.359 41.7217C280.216 39.4581 279.337 36.0298 279.083 32.011C279.021 31.4385 279.047 30.8758 279.073 30.3131L279.509 24.7369C279.603 23.4905 279.992 22.2768 280.692 21.2233C280.977 20.7521 281.252 20.3742 281.581 20.065C281.591 20.0538 281.601 20.0425 281.612 20.0313ZM268.513 69.8855C269.454 71.68 272.306 72.8106 277.071 73.2774C277.122 83.8179 277.143 90.3833 277.141 94.3558C270.035 103.598 265.281 102.156 265.281 102.156C261.97 102.308 259.437 100.717 258.482 100.107C250.146 94.7973 234.323 65.249 231.593 60.0729C227.991 59.5517 224.627 58.5518 221.503 57.0734C216.521 54.7155 214.513 52.4785 215.48 50.3622L241.014 52.1034L241.084 52.0522L263.229 76.667C265.55 74.0628 267.126 71.936 268.513 69.8855Z" fill="#F2A98A"/>
<path opacity="0.2" d="M268.608 69.8854C269.549 71.6799 272.402 72.8105 277.166 73.2772C277.218 83.8177 277.239 90.3832 277.236 94.3557C270.131 103.598 265.376 102.156 265.376 102.156C262.065 102.308 259.533 100.717 258.577 100.106C250.242 94.7972 234.418 65.2489 231.689 60.0727C228.086 59.5515 224.723 58.5517 221.599 57.0733C216.616 54.7154 214.608 52.4783 215.575 50.3621L241.11 52.1033L241.18 52.052L263.324 76.6669C265.645 74.0627 267.222 71.9358 268.608 69.8854Z" fill="#8C2A00"/>
<path d="M291.028 43.931L295.387 42.4619L291.821 48.2169L291.028 43.931Z" fill="#482D1F"/>
<path d="M301.656 31.3062C301.687 30.5489 301.54 29.7717 301.154 29.0564C300.352 27.5533 298.663 26.5804 297.202 26.9208C296.379 27.1124 295.785 27.7062 295.72 27.7618C294.82 28.7303 294.532 29.8296 294.532 29.8296L294.388 30.5592C283.783 26.2866 281.727 20.8942 281.174 20.5541C281.343 20.3529 281.509 20.1827 281.613 20.0371C284.239 16.9665 289.108 17.0671 291.29 17.5607C291.581 17.6245 292.511 17.8533 293.884 18.1001C294.643 18.2471 295.232 18.3125 295.582 18.3828C300.036 19.0657 301.857 18.7023 303.97 20.1937C304.36 20.457 305.276 21.1242 305.991 22.3034C308.224 25.882 307.207 29.8225 306.82 30.7222C306.549 31.352 306.123 31.7447 306.123 31.7447C304.556 31.4965 303.095 31.3866 301.656 31.3062ZM278.321 28.7575C278.028 28.6788 277.96 28.2682 278.177 28.0612C278.456 27.8262 278.941 27.6027 279.532 27.6354C280.743 27.7025 282.001 28.617 280.624 28.9163C279.815 29.0906 278.876 28.9134 278.321 28.7575ZM284.397 29.3129C284.104 29.2341 284.036 28.8235 284.283 28.6182C284.561 28.3832 285.046 28.1597 285.667 28.1941C286.878 28.2611 288.135 29.2069 286.759 29.4749C285.89 29.6772 284.952 29.4688 284.397 29.3129Z" fill="#482D1F"/>
<path d="M280.516 31.0696C280.46 31.5985 280.328 32.4674 280.017 32.7631C279.492 33.2034 278.919 31.607 279.351 30.6609C279.519 30.2634 279.729 30.2124 279.964 30.2567C280.315 30.3387 280.535 30.6951 280.516 31.0696ZM285.808 31.2999C285.812 31.8321 285.768 32.7059 285.454 33.064C284.985 33.57 284.232 32.0263 284.577 31.044C284.715 30.6448 284.926 30.5627 285.163 30.5757C285.517 30.5954 285.797 30.9238 285.808 31.2999Z" fill="#482D1F"/>
<path d="M283.069 37.5632C283.279 37.5123 283.789 37.384 283.895 37.0457C283.898 36.9832 283.932 36.8913 283.905 36.8272C283.798 36.6022 283.437 36.7074 282.904 36.7092C281.955 36.7193 281.192 36.5831 281.192 36.5831C281.192 36.5831 281.368 37.2187 281.506 37.4141C281.778 37.8986 282.739 37.6389 283.069 37.5632Z" fill="#482D1F"/>
<path d="M281.37 31.1793L281.375 31.1361L281.371 31.1575L281.37 31.1793ZM280.766 34.4508C280.693 34.7996 280.935 35.1596 281.268 35.2375C281.342 35.2488 281.342 35.2488 281.389 35.2553C281.886 35.3234 282.197 35.3557 282.732 35.3853C282.895 35.3944 283.034 35.262 283.043 35.0896C283.052 34.9173 282.926 34.7702 282.763 34.7612C282.245 34.7325 281.948 34.7017 281.466 34.6355L281.37 34.6224C281.37 34.621 281.345 34.5837 281.346 34.5777L281.956 31.2552L281.961 31.212L282.053 29.3708C282.061 29.1984 281.936 29.0514 281.773 29.0424C281.61 29.0333 281.47 29.1657 281.462 29.3381L281.371 31.1575L280.766 34.4508Z" fill="#482D1F"/>
<path d="M301.636 30.8237C301.68 31.7493 301.426 32.7235 300.955 33.4772C300.379 34.4291 299.655 34.9027 298.748 35.2283C298.594 35.2839 298.511 35.4614 298.563 35.6248C298.616 35.7882 298.784 35.8756 298.939 35.8201C299.338 35.6769 299.657 35.5314 300.035 35.2843C300.592 34.9202 301.075 34.4394 301.451 33.8175C301.989 32.9569 302.277 31.8512 302.227 30.7923C302.218 30.6199 302.079 30.4872 301.916 30.4959C301.753 30.5045 301.627 30.6513 301.636 30.8237Z" fill="#482D1F"/>
<path d="M324.244 141.786C324.291 141.532 324.524 141.366 324.765 141.416C325.005 141.465 325.162 141.712 325.115 141.966C324.821 143.562 324.555 144.794 323.933 147.532C323.314 150.257 323.05 151.481 322.758 153.059C322.712 153.313 322.478 153.479 322.238 153.43C321.997 153.38 321.84 153.134 321.887 152.88C322.182 151.284 322.448 150.051 323.07 147.313C323.688 144.588 323.953 143.365 324.244 141.786ZM330.245 140.411C330.307 140.161 330.549 140.01 330.787 140.076C331.024 140.141 331.166 140.397 331.104 140.647C330.682 142.363 330.383 143.702 329.739 146.687C329.093 149.682 328.792 151.027 328.367 152.755C328.305 153.006 328.063 153.156 327.825 153.091C327.588 153.026 327.446 152.77 327.507 152.519C327.93 150.803 328.229 149.465 328.873 146.479C329.519 143.484 329.82 142.14 330.245 140.411Z" fill="#482D1F"/>
<path d="M230.29 57.3938C240.748 57.3938 249.226 48.3695 249.226 37.2376C249.226 26.1056 240.748 17.0813 230.29 17.0813C219.832 17.0813 211.354 26.1056 211.354 37.2376C211.354 48.3695 219.832 57.3938 230.29 57.3938Z" fill="#474BFF"/>
<path d="M230.341 36.7668C228.252 36.7668 226.558 35.0002 226.558 32.8209C226.558 30.6416 228.252 28.875 230.341 28.875C232.43 28.875 234.124 30.6416 234.124 32.8209C234.124 35.0002 232.43 36.7668 230.341 36.7668ZM230.341 38.7398C234.128 38.7398 237.198 41.9418 237.198 45.8918H223.484C223.484 41.9418 226.554 38.7398 230.341 38.7398Z" fill="#F2F6FB"/>
<path d="M28.2917 230.942V231C28.2917 231.75 28.9131 232.375 29.6232 232.375H51.9628L44.0919 247.625C38.4701 258.5 32.8779 269.344 27.2858 280.219L18.0246 298.156C17.6992 298.781 17.9655 299.594 18.5868 299.969L18.7052 300.031C19.3265 300.406 20.1254 300.188 20.4213 299.594L55.0691 232.375H78.1479L112.796 299.594C113.092 300.188 113.891 300.375 114.512 300.031L114.63 299.969C115.252 299.594 115.518 298.781 115.192 298.156L105.931 280.219C100.31 269.344 94.7173 258.5 89.1252 247.625L81.2542 232.375H110.873C111.612 232.375 112.204 231.75 112.204 231V230.844C112.204 230.094 111.583 229.469 110.873 229.469H90.7525C77.6449 229.469 64.5077 229.469 51.3706 229.469H30.9042L28.4101 208.156C26.694 193.656 25.0075 179.125 23.2913 164.594L20.4805 140.594C20.3917 139.75 19.7112 139.125 18.9715 139.219L18.8235 139.25C18.1134 139.344 17.6104 140.125 17.6992 140.906L28.2622 230.781C28.2698 230.836 28.2797 230.889 28.2917 230.942Z" fill="#D8DEED"/>
<path d="M92.6261 297.747C92.4445 297.651 92.2409 297.596 92.0275 297.596H76.028L46.666 274.492L57.7917 258.031L75.6038 271.688C76.5802 275.187 77.5862 278.687 78.5922 282.219C79.1248 284.062 79.6574 285.875 80.19 287.687C81.8469 288.375 83.2671 289 84.2731 289.469C86.1964 290.344 87.8237 291.156 89.599 292.375C89.599 292.375 91.1376 293.375 91.9957 294.812C92.262 295.281 92.4987 295.812 92.6466 296.375C92.7058 296.625 92.7058 296.875 92.7354 297.094C92.7261 297.299 92.6822 297.529 92.6261 297.747ZM148.045 297.695C147.948 297.671 147.846 297.659 147.742 297.659H100.105C100.016 297.659 99.9288 297.668 99.8445 297.686L99.3819 278.204L121.753 278.136C124.487 280.023 126.265 281.386 127.088 282.225C128.322 283.484 129.643 284.647 131.08 285.652C134.553 288.057 136.358 288.024 141.639 290.646C143.071 291.338 144.445 292.126 145.791 293.007C147.137 293.889 147.598 294.88 147.978 296.374C148.041 296.623 148.045 296.873 148.078 297.091C148.082 297.337 148.07 297.535 148.045 297.695Z" fill="#474961"/>
<path d="M74.9507 300.157C74.9214 300.137 74.8926 300.116 74.8645 300.094L45.1579 276.719C44.5661 276.25 44.4477 275.344 44.8916 274.719C45.3354 274.094 46.1935 273.969 46.7852 274.438L76.1741 297.563H92.1736C92.9133 297.563 93.5346 298.219 93.5346 299C93.5346 299.781 92.9133 300.438 92.1736 300.438H75.7521C75.4512 300.438 75.1747 300.334 74.9507 300.157ZM100.251 297.625H147.888C148.624 297.625 149.22 298.255 149.22 299.031C149.22 299.808 148.624 300.438 147.888 300.438H100.251C99.5158 300.438 98.9197 299.808 98.9197 299.031C98.9197 298.255 99.5158 297.625 100.251 297.625Z" fill="#FF5645"/>
<path d="M131.768 218.162C129.563 230.401 128.661 248.34 130.823 259.632C130.823 259.632 133.068 279.039 131.496 279.164C131.114 279.195 127.058 279.382 126.629 279.414C115.952 280.164 97.4099 281.664 94.6453 281.664C92.8022 281.664 91.8807 280.414 91.8807 277.914L91.2793 271.201V271.146C89.2402 273.716 87.1234 276.381 84.929 279.14C81.6643 280.163 76.7261 278.697 70.1145 274.742C63.503 270.786 58.3854 266.887 54.7619 263.044C53.0162 261.856 48.7678 255.289 49.8921 253.57L57.3188 242.133L61.757 235.289C62.9997 233.351 63.9378 232.067 65.2693 230.035C65.2693 230.004 65.5076 229.633 65.5076 229.601C65.0342 229.601 65.5739 229.195 62.2008 229.164C58.8278 229.133 40.6606 228.726 33.7073 218.133C30.9336 213.906 30.7189 209.226 30.5118 207.133C29.7425 198.987 31.7772 192.385 36.6158 187.328C37.9118 186.323 38.8656 185.726 39.477 185.539C40.4535 185.226 45.6018 185.07 46.6078 185.008L67.2604 184.726C77.0882 184.588 85.2935 184.471 91.8765 184.374L91.8807 184.32L91.8765 184.374C105.179 184.178 111.856 184.067 111.909 184.039C112.027 183.976 124.792 184.539 128.224 186.633C134.798 190.701 138.255 203.519 131.768 218.162Z" fill="#FFC855"/>
<path opacity="0.2" d="M131.704 218.284C129.508 230.522 128.613 248.416 130.771 259.687C130.771 259.687 133.017 279.093 131.444 279.218C131.062 279.249 127.006 279.437 126.577 279.468C115.9 280.218 97.3581 281.718 94.5936 281.718C92.7505 281.718 91.829 280.468 91.829 277.968L91.2285 271.266C116.719 239.139 130.061 221.808 131.254 219.27C131.409 218.941 131.559 218.612 131.704 218.284ZM91.817 184.527L91.829 184.374L91.817 184.527ZM102.992 184.358C102.986 184.358 102.981 184.358 102.975 184.359L102.554 184.28H102.601C102.732 184.306 102.862 184.332 102.992 184.358Z" fill="#8C2A00"/>
<path d="M78.9283 208.757C77.4685 211.089 75.931 213.355 72.1981 218.748C68.4526 224.16 66.9104 226.433 65.4361 228.788C65.2558 229.076 65.3307 229.464 65.6034 229.654C65.876 229.844 66.2431 229.765 66.4234 229.477C67.8832 227.145 69.4206 224.879 73.1536 219.486C76.8991 214.074 78.4413 211.801 79.9156 209.446C80.0958 209.158 80.0209 208.77 79.7483 208.58C79.4757 208.39 79.1085 208.469 78.9283 208.757Z" fill="#482D1F"/>
<path d="M128.434 128.678C129.449 129.517 129.638 131.055 128.855 132.114C128.843 132.13 128.831 132.146 128.819 132.162L116.622 147.82C115.996 148.624 114.869 148.746 114.083 148.097C113.296 147.447 113.136 146.262 113.722 145.425L125.143 129.126C125.9 128.046 127.352 127.829 128.387 128.64C128.403 128.653 128.419 128.665 128.434 128.678Z" fill="#474961"/>
<path d="M125.957 131.873C128.55 134.016 132.241 133.603 134.2 130.951C135.142 129.675 133.804 126.995 134.107 123.035C134.178 122.109 134.778 120.618 135.908 118.559L135.908 118.559C135.989 118.411 135.94 118.219 135.798 118.131C135.729 118.088 135.646 118.076 135.57 118.098C129.652 119.79 126.065 121.486 124.808 123.188C122.849 125.841 123.363 129.729 125.957 131.873Z" fill="#F2F6FB"/>
<path d="M128.75 128.128C129.36 128.633 131.342 127.352 131.637 128.031C132.626 130.309 132.615 133.38 134.2 131.234C135.189 129.895 133.838 127.124 134.199 123C134.284 122.033 134.926 120.467 136.125 118.301L136.125 118.301C136.207 118.152 136.159 117.961 136.017 117.872C135.947 117.828 135.863 117.817 135.785 117.84C129.638 119.681 125.903 121.496 124.582 123.285C123.399 124.888 124.362 125.73 126.182 126.006C126.819 126.103 127.245 125.317 128.14 125.141C129.136 124.945 128.156 127.637 128.75 128.128Z" fill="#474BFF"/>
<path d="M70.7747 128.883C78.0861 131.616 82.7541 139.581 81.4413 147.961L75.5373 184.571L41.6505 184.984C39.7082 184.602 38.3349 183.732 37.5307 182.375C36.3245 180.34 36.6343 177.772 36.791 176.784L42.6887 140.585C44.1448 131.399 52.2917 125.264 60.9707 126.778L61.5459 123.826C61.6112 123.49 61.9216 123.278 62.2391 123.352L70.8623 125.35C71.1798 125.423 71.3842 125.755 71.3188 126.09L70.7747 128.883Z" fill="#FF4F03"/>
<path d="M63.9119 112.855C63.3341 119.559 63.0227 122.944 62.9778 123.011C62.9315 123.079 65.5993 123.713 70.9811 124.911L71.4429 122.319C71.5686 122.37 71.6979 122.422 71.831 122.475C74.3239 123.515 74.1748 123.422 74.3525 123.483C76.2162 123.996 77.8028 123.946 78.096 123.911C80.5608 123.693 83.3341 118.849 84.4724 111.886C84.5774 111.319 84.5942 110.752 84.6403 110.186L84.75 104.556C84.7807 103.297 84.5175 102.043 83.9345 100.949C83.6888 100.48 83.4439 100.043 83.1716 99.7002C80.0474 95.3975 74.4802 96.2494 73.4836 96.3869C73.366 96.3883 73.2492 96.4212 73.1316 96.4225C72.0209 96.7187 71.0167 96.5104 69.9578 96.4914C69.4875 96.497 69.1145 96.9102 69.0963 97.4136L69.1289 105.463C69.1163 106.218 67.0692 104.482 66.2742 104.429C64.8605 104.32 63.3343 106.664 62.8395 108.21C62.2888 109.884 62.797 111.576 63.7327 112.665C63.7917 112.732 63.8514 112.795 63.9119 112.855ZM83.6882 168.648C84.3113 168.425 84.9324 168.202 85.5522 167.977C90.2943 166.257 94.9613 164.501 100.025 162.55C101.732 161.911 102.464 161.591 103.688 161.078C107.677 159.391 122.687 152.907 123.403 152.299C125.932 151.154 124.21 141.486 124.189 137.959C120 139.905 114.241 142.395 106.912 145.429C105.434 146.236 104.371 147.29 103.611 148.169C102.362 148.261 92.3811 150.051 83.1849 151.635C83.4366 151.59 83.689 151.546 83.9417 151.502C83.867 148.989 83.4105 145.151 81.5195 140.975C81.9972 143.151 82.089 145.461 81.7255 147.803L81.0545 152C75.6751 152.918 70.8388 153.71 68.567 153.971C68.4359 153.572 67.3957 148.873 65.4464 139.873L47.9541 145.025C48.3717 147.61 49.3614 151.755 50.9233 157.46C53.2661 166.019 54.189 172.404 60.1948 174.314C61.5947 174.761 63.4056 174.706 67.4206 173.694C71.1999 172.741 74.7097 171.689 78.0849 170.577L75.8154 184.775L75.8029 184.775L75.8105 184.817L108.059 184.558C109.76 184.513 107.769 183.256 102.085 180.786C96.4017 178.317 90.6106 176.21 84.7122 174.466L84.4985 168.359C84.2287 168.456 83.9586 168.552 83.6882 168.648ZM44.076 136.273C48.3965 138.297 52.5691 138.558 56.5935 137.055C60.618 135.553 62.647 132.131 62.6803 126.79C59.1521 125.619 55.4567 125.906 51.5941 127.649C47.7316 129.392 45.2255 132.267 44.076 136.273Z" fill="#DB9E75"/>
<path d="M71.0137 124.924L68.5199 121.133L71.4576 122.525L71.0137 124.924Z" fill="#482D1F"/>
<path d="M82.9713 110.825C83.0032 110.452 83.2772 110.157 83.6304 110.133C83.8658 110.118 84.0808 110.227 84.2005 110.651C84.4784 111.619 83.6695 113.092 83.2465 112.565C82.9253 112.216 82.9506 111.35 82.9713 110.825ZM77.7197 110.987C77.7516 110.615 78.0256 110.319 78.3788 110.296C78.6142 110.28 78.8292 110.389 78.9489 110.813C79.2268 111.782 78.4179 113.254 77.9949 112.727C77.6737 112.378 77.6696 111.515 77.7197 110.987Z" fill="#482D1F"/>
<path d="M79.6094 117.191C79.3988 117.142 78.8847 116.987 78.7717 116.645C78.7672 116.582 78.731 116.489 78.7559 116.424C78.8602 116.226 79.2497 116.295 79.7842 116.322C80.7332 116.352 81.492 116.205 81.492 116.205C81.492 116.205 81.3015 116.854 81.1655 117.022C80.907 117.548 79.94 117.264 79.6094 117.191Z" fill="#482D1F"/>
<path d="M84.9866 108.358C85.2761 108.275 85.3668 107.89 85.1453 107.683C84.8626 107.449 84.3991 107.165 83.8088 107.173C82.5987 107.192 81.3293 108.037 82.6546 108.39C83.5004 108.649 84.4346 108.49 84.9866 108.358ZM79.282 108.746C79.5715 108.663 79.6622 108.277 79.4112 108.073C79.1286 107.839 78.6651 107.554 78.0453 107.565C76.8352 107.584 75.5681 108.46 76.8912 108.782C77.7664 109.038 78.7006 108.88 79.282 108.746ZM64.0439 117.833C65.1302 117.06 65.864 115.838 66.2455 114.168C65.7065 114.001 64.8759 113.644 64.1988 112.829C63.2897 111.736 62.7807 110.07 63.3345 108.455C63.8307 106.904 65.2781 105.688 66.6961 105.798C67.4935 105.851 68.1232 106.317 68.2131 106.379C69.2036 107.156 69.6388 108.16 69.6388 108.16L70.2868 109.895C71.2963 109.14 73.3195 106.264 76.3563 101.268C78.0587 101.06 79.3734 100.917 80.3002 100.839C81.6904 100.722 83.1839 100.882 83.7444 100.644C83.7046 100.751 83.6649 100.858 83.6253 100.965C83.7242 100.779 83.7746 100.676 83.7746 100.676C83.802 100.581 83.3197 100.113 83.3183 100.05C80.365 95.8901 74.976 96.2376 73.9765 96.3755C73.8585 96.3769 73.7413 96.4098 73.6227 96.3797C71.9759 96.5884 70.5909 96.6363 69.6482 96.6789C65.1689 96.8264 63.4154 96.2163 61.172 97.4414C60.7642 97.667 59.8032 98.2145 58.9728 99.3282C58.4924 99.9518 58.1332 100.615 57.8669 101.286C55.2956 101.179 53.4784 102.533 52.4154 105.348C50.9961 109.107 53.2276 112.536 55.99 113.951C57.1694 117.052 60.3666 119.302 62.9263 118.429C63.3869 118.272 63.7595 118.073 64.0439 117.833Z" fill="#482D1F"/>
<path d="M81.4472 111.177L81.4423 111.131L81.4463 111.154L81.4472 111.177ZM82.0295 114.451L82.0338 114.486C82.058 114.827 81.8632 115.159 81.5503 115.237C81.4925 115.247 81.4602 115.252 81.4279 115.256C81.1215 115.299 80.9008 115.317 80.1077 115.371C79.9469 115.382 79.8066 115.251 79.7944 115.078C79.7821 114.906 79.9025 114.757 80.0632 114.746C80.8423 114.693 81.0569 114.675 81.3457 114.635C81.3758 114.631 81.4058 114.627 81.436 114.622C81.4295 114.623 81.4512 114.585 81.4519 114.538L80.8687 111.241L80.8639 111.195L80.7909 109.348C80.7841 109.175 80.9092 109.03 81.0703 109.025C81.2314 109.02 81.3675 109.156 81.3743 109.329L81.4463 111.154L82.0295 114.451Z" fill="#482D1F"/>
<path d="M65.0322 139.789L65.0172 137.266C65.0156 137.007 65.2106 136.798 65.4527 136.799C65.6947 136.801 65.8922 137.013 65.8938 137.272L65.9088 139.795C65.9104 140.054 65.7154 140.263 65.4733 140.261C65.2313 140.26 65.0338 140.048 65.0322 139.789Z" fill="#482D1F"/>
<path opacity="0.2" d="M81.461 141.032C81.9718 142.124 82.4771 143.543 82.9768 145.288C83.4766 147.033 83.7706 149.085 83.8589 151.444L80.9844 151.922C81.2367 150.417 81.411 149.338 81.5072 148.687C81.6886 147.459 81.8871 146.374 81.8819 145.522C81.8727 143.995 81.7324 142.498 81.461 141.032ZM78.0215 170.306L84.4245 168.114L84.6393 174.152C95.1374 177.549 102.494 180.365 106.71 182.6C107.559 183.05 108.087 183.372 108.293 183.564C108.38 183.65 108.448 183.724 108.497 183.786C108.619 183.939 108.499 184.095 108.118 184.121C107.863 184.138 97.072 184.217 75.7444 184.358L78.0215 170.306Z" fill="#8C2A00"/>
</svg>
