<svg width="503" height="375" viewBox="0 0 503 375" fill="none" xmlns="http://www.w3.org/2000/svg">
<path d="M323.103 38.125H165.694C162.426 38.125 159.776 40.9232 159.776 44.375V294.688C159.776 298.139 162.426 300.938 165.694 300.938H323.103C326.372 300.938 329.021 298.139 329.021 294.688V44.375C329.021 40.9232 326.372 38.125 323.103 38.125Z" fill="#F2F6FB"/>
<path d="M170.281 50.6332C171.833 50.6332 173.091 49.4439 173.091 47.9769C173.091 46.5099 171.833 45.3207 170.281 45.3207C168.728 45.3207 167.47 46.5099 167.47 47.9769C167.47 49.4439 168.728 50.6332 170.281 50.6332Z" fill="#FF5645"/>
<path d="M179.6 50.6332C181.071 50.6332 182.263 49.4439 182.263 47.9769C182.263 46.5099 181.071 45.3207 179.6 45.3207C178.13 45.3207 176.938 46.5099 176.938 47.9769C176.938 49.4439 178.13 50.6332 179.6 50.6332Z" fill="#FFCB3D"/>
<path d="M188.625 50.6332C190.014 50.6332 191.14 49.4439 191.14 47.9769C191.14 46.5099 190.014 45.3207 188.625 45.3207C187.236 45.3207 186.11 46.5099 186.11 47.9769C186.11 49.4439 187.236 50.6332 188.625 50.6332Z" fill="#3ABF7C"/>
<path d="M231.379 45.3207H257.713C258.203 45.3207 258.601 45.7404 258.601 46.2582V49.6957C258.601 50.2134 258.203 50.6332 257.713 50.6332H231.379C230.889 50.6332 230.492 50.2134 230.492 49.6957V46.2582C230.492 45.7404 230.889 45.3207 231.379 45.3207ZM306.534 45.3207H320.736C321.226 45.3207 321.624 45.7404 321.624 46.2582V49.6957C321.624 50.2134 321.226 50.6332 320.736 50.6332H306.534C306.043 50.6332 305.646 50.2134 305.646 49.6957V46.2582C305.646 45.7404 306.043 45.3207 306.534 45.3207ZM287.005 45.3207H300.912C301.402 45.3207 301.799 45.7404 301.799 46.2582V49.6957C301.799 50.2134 301.402 50.6332 300.912 50.6332H287.005C286.515 50.6332 286.118 50.2134 286.118 49.6957V46.2582C286.118 45.7404 286.515 45.3207 287.005 45.3207ZM212.147 128.54H277.241C277.568 128.54 277.833 128.82 277.833 129.165V134.485C277.833 134.83 277.568 135.11 277.241 135.11H212.147C211.82 135.11 211.555 134.83 211.555 134.485V129.165C211.555 128.82 211.82 128.54 212.147 128.54ZM200.312 117.903H288.485C288.812 117.903 289.076 118.183 289.076 118.528V123.848C289.076 124.193 288.812 124.473 288.485 124.473H200.312C199.985 124.473 199.72 124.193 199.72 123.848V118.528C199.72 118.183 199.985 117.903 200.312 117.903ZM170.132 152.498C170.132 151.809 170.664 151.25 171.316 151.25H318.072C318.726 151.25 319.256 151.809 319.256 152.498V253.87C319.256 254.559 318.724 255.118 318.072 255.118H171.316C170.662 255.118 170.132 254.559 170.132 253.87V152.498ZM171.057 263.125H238.739C239.266 263.125 239.458 263.183 239.65 263.292C239.843 263.401 239.995 263.561 240.098 263.764C240.201 263.968 240.256 264.17 240.256 264.727V285.925C240.256 286.482 240.201 286.684 240.098 286.888C239.995 287.092 239.843 287.252 239.65 287.361C239.458 287.47 239.266 287.528 238.739 287.528H171.057C170.53 287.528 170.338 287.47 170.146 287.361C169.953 287.252 169.801 287.092 169.698 286.888C169.595 286.684 169.54 286.482 169.54 285.925V264.727C169.54 264.17 169.595 263.968 169.698 263.764C169.801 263.561 169.953 263.401 170.146 263.292C170.338 263.183 170.53 263.125 171.057 263.125ZM250.058 263.125H317.739C318.267 263.125 318.458 263.183 318.651 263.292C318.844 263.401 318.995 263.561 319.098 263.764C319.202 263.968 319.256 264.17 319.256 264.727V285.925C319.256 286.482 319.202 286.684 319.098 286.888C318.995 287.092 318.844 287.252 318.651 287.361C318.458 287.47 318.267 287.528 317.739 287.528H250.058C249.53 287.528 249.339 287.47 249.146 287.361C248.953 287.252 248.802 287.092 248.699 286.888C248.596 286.684 248.541 286.482 248.541 285.925V264.727C248.541 264.17 248.596 263.968 248.699 263.764C248.802 263.561 248.953 263.401 249.146 263.292C249.339 263.183 249.53 263.125 250.058 263.125Z" fill="#E1E5F0"/>
<path d="M269.534 186.279C273.854 186.279 277.356 182.565 277.356 177.983C277.356 173.402 273.854 169.688 269.534 169.688C265.214 169.688 261.712 173.402 261.712 177.983C261.712 182.565 265.214 186.279 269.534 186.279Z" fill="#F2F6FB"/>
<path d="M244.546 110.05V108.8C246.192 108.8 247.809 108.573 249.368 108.129L249.676 109.336C248.017 109.808 246.296 110.05 244.546 110.05ZM254.451 107.229L253.854 106.149C255.26 105.282 256.553 104.223 257.697 103L258.539 103.879C257.321 105.179 255.946 106.307 254.451 107.229ZM261.665 99.5218L260.636 98.9042C261.439 97.4118 262.053 95.8126 262.459 94.143L263.605 94.454C263.173 96.2313 262.519 97.9335 261.665 99.5218ZM264.221 89.001L263.038 89.0168C263.017 87.2797 262.781 85.575 262.341 83.9338L263.48 83.5932C263.948 85.3398 264.199 87.1537 264.221 89.001ZM261.421 78.5751L260.407 79.2192C259.568 77.7458 258.548 76.3944 257.375 75.2012L258.196 74.301C259.444 75.5701 260.529 77.0076 261.421 78.5751ZM254.032 71.0574L253.461 72.1521C252.038 71.3236 250.516 70.6963 248.93 70.289L249.21 69.0744C250.898 69.5079 252.518 70.1757 254.032 71.0574ZM244.04 68.4939L244.07 69.7435C242.426 69.7874 240.815 70.0583 239.266 70.5449L238.928 69.3467C240.577 68.8289 242.292 68.5406 244.04 68.4939ZM234.205 71.5857L234.828 72.6485C233.444 73.5533 232.177 74.6481 231.063 75.9019L230.2 75.0462C231.385 73.7127 232.732 72.5482 234.205 71.5857ZM227.182 79.486L228.226 80.0752C227.46 81.5883 226.886 83.2035 226.521 84.8846L225.368 84.6053C225.756 82.8157 226.367 81.0964 227.182 79.486ZM224.885 90.0723L226.067 90.0248C226.13 91.7593 226.407 93.4576 226.888 95.0878L225.758 95.4598C225.246 93.7246 224.951 91.9173 224.885 90.0723ZM227.939 100.418L228.937 99.7463C229.812 101.196 230.864 102.52 232.066 103.681L231.267 104.603C229.989 103.368 228.869 101.96 227.939 100.418ZM235.508 107.732L236.053 106.622C237.495 107.411 239.031 107.997 240.628 108.36L240.378 109.582C238.679 109.195 237.043 108.572 235.508 107.732ZM256.933 236.513L246.667 236.562L246.696 236.513H201.856C199.079 236.513 198.022 234.497 199.495 232.01L230.137 180.277C231.61 177.79 234.049 177.755 235.585 180.204L258.354 216.792L266.409 203.165C267.708 200.968 269.862 200.934 271.222 203.09L289.87 232.66C291.229 234.815 290.357 236.374 287.902 236.294L274.265 236.431L269.959 236.451L269.994 236.513C269.994 236.513 267.745 236.513 264.965 236.513H256.933Z" fill="#3C41FF"/>
<path opacity="0.176986" d="M269.873 236.584C269.873 236.584 267.623 236.584 264.844 236.584H201.735C198.958 236.584 197.9 234.568 199.373 232.081L230.016 180.348C231.489 177.861 233.927 177.826 235.464 180.275L261.961 222.854" fill="#444444"/>
<path d="M423.703 338.437H393.375C392.665 338.437 392.044 337.897 392.044 337.247V336.815C392.044 336.166 392.636 335.625 393.375 335.625H423.703C424.414 335.625 425.035 336.166 425.035 336.815V337.247C425.035 337.897 424.443 338.437 423.703 338.437ZM354.023 335.625C354.759 335.625 355.355 336.254 355.355 337.031C355.355 337.808 354.759 338.437 354.023 338.437H305.794C305.059 338.437 304.463 337.808 304.463 337.031C304.463 336.254 305.059 335.625 305.794 335.625H354.023Z" fill="#9105C6"/>
<path d="M423.865 335.634C423.812 335.628 423.758 335.625 423.704 335.625H393.477L395.869 319.683L417.054 316.652L423.865 335.634ZM354.2 335.637C354.142 335.629 354.083 335.625 354.023 335.625H306.004C305.972 335.454 305.956 335.238 305.961 334.959C305.994 334.741 305.998 334.491 306.061 334.242C306.441 332.749 306.901 331.757 308.248 330.875C309.594 329.994 310.968 329.206 312.4 328.514C317.681 325.892 319.486 325.925 322.958 323.52C324.396 322.515 325.717 321.352 326.951 320.093C327.774 319.254 329.453 317.891 331.99 316.004L354.802 316.543L354.2 335.637Z" fill="#474961"/>
<path d="M386.307 144.13C388.558 148.761 394.654 163.129 400.095 192.378C400.543 194.804 400.974 197.167 401.386 199.461L401.428 199.408C408.885 229.084 414.061 249.86 416.957 261.735C419.93 273.931 415.807 273.74 418.062 284.001C419.362 289.917 423.718 294.674 423.68 300.833C423.674 301.806 423.696 303.752 423.747 306.67C423.837 311.882 420.231 316.345 415.343 317.07L395.602 320.001C390.262 320.793 385.325 316.864 384.574 311.224C384.568 311.172 384.561 311.12 384.555 311.068C384.022 306.569 383.753 303.894 383.746 303.044C383.732 301.282 383.711 299.678 383.679 298.217C382.541 293.301 381.356 288.184 380.402 284.06C379.115 281.96 377.601 279.057 376.408 274.361C375.623 271.271 373.838 259.246 371.054 238.284C371 238.003 370.899 237.136 370.749 235.684L366.851 220.534C366.689 222.304 366.523 224.094 366.355 225.9C366.699 251.007 366.69 265.112 366.328 268.214C365.19 277.975 361.784 280.663 361.685 283.731C361.587 286.735 362.019 291.114 362.841 297.696C362.947 298.539 363.032 301.227 363.098 305.761C363.098 305.813 363.099 305.866 363.099 305.918C363.099 310.483 360.291 314.355 356.4 315.712C353.952 318.066 350.01 316.275 339.661 316.35C339.661 316.35 338.068 316.365 335.965 316.231L333.4 316.231C331.881 316.231 330.436 315.862 329.146 315.202C327.922 314.84 326.91 314.364 326.346 313.738C325.875 313.201 325.578 312.592 325.578 312.592C325.438 312.259 325.337 311.932 325.264 311.623C324.446 310.322 323.897 308.809 323.708 307.167C323.373 304.27 323.139 302.34 323.005 301.377C322.156 295.283 325.842 289.932 326.35 283.883C327.231 273.391 323.173 274.185 324.51 261.671C325.801 249.599 328.242 235.665 331.835 219.868C333.913 194.988 336.648 167.033 339.661 157.64C339.711 157.472 341.59 150.813 344.307 146.113C344.39 146.207 344.476 146.298 344.565 146.385C344.905 146.722 345.244 146.966 345.581 147.147C346.257 147.572 346.817 147.718 346.817 147.718C346.817 147.718 346.845 147.718 346.873 147.748C346.873 147.748 365.013 152.54 383.012 147.082L383.067 147.05C383.067 147.05 383.622 146.883 384.284 146.434C384.587 146.241 384.945 145.953 385.274 145.634C385.686 145.208 386.027 144.695 386.307 144.13Z" fill="#8F4AFF"/>
<path opacity="0.176986" d="M348.188 148.054L357.659 184.938L366.842 220.634C366.683 222.371 366.52 224.128 366.355 225.9C366.699 251.007 366.69 265.112 366.328 268.214C365.19 277.975 361.784 280.663 361.685 283.731C361.587 286.735 362.019 291.114 362.841 297.696C362.947 298.539 363.032 301.227 363.098 305.761C363.098 305.813 363.099 305.866 363.099 305.918C363.099 310.483 360.291 314.355 356.4 315.712C353.952 318.066 350.01 316.275 339.661 316.35C339.661 316.35 338.068 316.365 335.965 316.231L333.4 316.231C331.881 316.231 330.436 315.862 329.146 315.202C327.922 314.84 326.91 314.364 326.346 313.738C325.875 313.201 325.578 312.592 325.578 312.592C325.438 312.259 325.337 311.932 325.264 311.623C324.446 310.322 323.897 308.809 323.708 307.167C323.373 304.27 323.139 302.34 323.005 301.377C322.156 295.283 325.842 289.932 326.35 283.883C327.231 273.391 323.173 274.185 324.51 261.671C325.801 249.599 328.242 235.665 331.835 219.868C333.913 194.988 336.648 167.033 339.661 157.64C339.711 157.472 341.59 150.813 344.307 146.113C344.39 146.207 344.476 146.298 344.565 146.385C344.905 146.722 345.244 146.966 345.581 147.147C346.257 147.572 346.817 147.718 346.817 147.718C346.817 147.718 346.845 147.718 346.873 147.748C346.873 147.748 347.336 147.871 348.188 148.054Z" fill="#444444"/>
<path d="M386.621 104.901C386.655 105.26 386.688 105.631 386.721 106.014L386.722 106.108L386.803 107.638C387.28 124.663 387.518 132.316 387.651 135.314C387.651 135.314 387.628 135.627 387.664 136.095C387.742 137.469 387.864 143.123 385.397 145.669C385.068 145.988 384.71 146.276 384.407 146.469C383.746 146.919 383.191 147.085 383.191 147.085L383.136 147.117C365.137 152.575 346.997 147.784 346.997 147.784C346.69 147.698 346.394 147.611 345.831 147.314C345.278 147.023 344.753 146.594 344.584 146.427C342.063 143.973 342.102 138.31 342.135 136.934C342.127 136.497 342.122 136.153 342.122 136.153C342.153 133.293 342.142 126.349 342.068 111.282C335.002 110.59 332.141 108.437 333.486 104.824C336.541 96.6157 338.564 88.7399 350.676 87.8299C353.648 86.2649 356.893 85.741 359.152 85.5814C360.461 85.4948 361.436 85.508 361.827 85.5321C361.994 85.529 362.218 85.5561 362.636 85.5797C363.054 85.6032 363.529 85.6257 364.059 85.6472C364.587 85.6062 365.061 85.5662 365.478 85.5273C365.896 85.4883 366.09 85.4535 366.285 85.4499C366.703 85.4109 367.649 85.3622 368.96 85.4006C369.273 85.4111 369.604 85.4277 369.951 85.4522C370.126 85.4097 370.304 85.3679 370.484 85.3268C382.933 82.4892 386.869 89.6733 391.924 96.8976C393.947 99.7893 392.179 102.457 386.621 104.901Z" fill="#F0549E"/>
<path opacity="0.176986" d="M350.489 87.8289C348.759 88.7496 347.125 90.0255 345.837 91.7905C345.265 92.5824 344.532 93.7836 343.975 95.5129C343.896 95.7644 343.816 95.9846 343.736 96.2361C343.55 96.7709 343.151 97.9034 342.809 99.1287C342.441 100.511 342.15 103.141 341.96 106.802L341.961 106.895L341.931 108.428C341.936 109.392 341.941 110.327 341.945 111.233C335.053 110.516 332.271 108.371 333.601 104.798C336.63 96.6592 338.645 88.8467 350.489 87.8289Z" fill="#444444"/>
<path d="M384.577 181.348C384.33 181.55 384.184 181.64 384.184 181.64C380.3 180.952 385.854 165.758 387.509 161.457L373.567 108.783C382.222 106.851 387.931 104.744 390.695 102.464C398.211 134.407 402.273 154.895 402.88 163.928C402.926 164.214 402.954 164.521 402.964 164.849C403.126 170.105 401.473 178.149 398.003 188.981C397.976 189.045 388.953 193.724 382.604 189.768L384.577 181.348ZM346.61 58.0312C346.622 58.0138 346.635 57.9961 346.647 57.9782C349.244 54.9043 354.024 54.9951 356.177 55.4855C356.439 55.5459 357.368 55.7748 358.713 56.0183C359.442 56.1621 360.031 56.2274 360.381 56.2977C364.747 56.9709 366.538 56.6042 368.622 58.0923C369.012 58.3556 369.898 59.0196 370.614 60.1988C372.632 63.5336 371.677 67.4497 371.412 68.6143C370.53 72.0985 368.372 74.0584 367.693 74.8944C367.189 75.5265 366.488 76.2322 365.807 76.8696L366.466 86.9555C366.474 87.1741 366.392 87.396 366.218 87.4962C365.465 88.0243 364.39 88.6268 363.04 88.9893C360.605 89.6732 358.491 89.3134 357.296 88.9822C357.058 88.9285 356.872 88.6852 356.864 88.4353L356.506 81.8214C356.247 81.8928 355.971 81.9669 355.676 82.0444C353.076 82.7613 353.233 82.6844 353.05 82.7269C351.146 83.0184 349.564 82.7799 349.276 82.685C348.226 82.4742 347.2 81.4177 346.357 79.7216C345.214 77.458 344.335 74.0297 344.081 70.0109C344.019 69.4384 344.045 68.8757 344.071 68.313L344.507 62.7368C344.601 61.4904 344.99 60.2767 345.69 59.2231C345.975 58.752 346.25 58.3741 346.579 58.0649C346.589 58.0536 346.599 58.0424 346.61 58.0312ZM333.511 107.885C334.452 109.68 337.304 110.81 342.069 111.277C342.12 121.818 342.141 128.383 342.139 132.356C335.033 141.598 330.279 140.156 330.279 140.156C326.968 140.308 324.435 138.717 323.48 138.107C315.144 132.797 299.321 103.249 296.591 98.0727C292.989 97.5515 289.625 96.5517 286.501 95.0733C281.519 92.7154 279.511 90.4783 280.478 88.3621L306.012 90.1033L306.082 90.052L328.227 114.667C330.548 112.063 332.124 109.936 333.511 107.885Z" fill="#F2A98A"/>
<path opacity="0.2" d="M333.606 107.885C334.547 109.68 337.4 110.81 342.164 111.277C342.216 121.818 342.237 128.383 342.234 132.356C335.129 141.598 330.374 140.156 330.374 140.156C327.063 140.308 324.531 138.717 323.575 138.106C315.24 132.797 299.416 103.249 296.687 98.0727C293.084 97.5515 289.721 96.5517 286.597 95.0733C281.614 92.7154 279.606 90.4783 280.573 88.3621L306.108 90.1033L306.178 90.052L328.322 114.667C330.643 112.063 332.22 109.936 333.606 107.885Z" fill="#8C2A00"/>
<path d="M356.027 81.931L360.386 80.4619L356.82 86.2169L356.027 81.931Z" fill="#482D1F"/>
<path d="M366.655 69.3062C366.686 68.5489 366.539 67.7717 366.153 67.0564C365.351 65.5533 363.663 64.5804 362.201 64.9208C361.378 65.1124 360.784 65.7062 360.719 65.7618C359.819 66.7303 359.531 67.8296 359.531 67.8296L359.387 68.5592C348.782 64.2866 346.726 58.8942 346.173 58.5541C346.342 58.3529 346.508 58.1827 346.612 58.0371C349.238 54.9665 354.107 55.0671 356.289 55.5607C356.58 55.6245 357.51 55.8533 358.883 56.1001C359.642 56.2471 360.231 56.3125 360.581 56.3828C365.035 57.0657 366.856 56.7023 368.969 58.1937C369.359 58.457 370.275 59.1242 370.99 60.3034C373.223 63.882 372.206 67.8225 371.819 68.7222C371.548 69.352 371.122 69.7447 371.122 69.7447C369.555 69.4965 368.094 69.3866 366.655 69.3062ZM343.32 66.7575C343.027 66.6788 342.959 66.2682 343.176 66.0612C343.455 65.8262 343.94 65.6027 344.531 65.6354C345.742 65.7025 347.001 66.617 345.623 66.9163C344.814 67.0906 343.875 66.9134 343.32 66.7575ZM349.396 67.3129C349.103 67.2341 349.035 66.8235 349.282 66.6182C349.56 66.3832 350.045 66.1597 350.666 66.1941C351.877 66.2611 353.134 67.2069 351.758 67.4749C350.889 67.6772 349.951 67.4688 349.396 67.3129Z" fill="#482D1F"/>
<path d="M345.515 69.0696C345.459 69.5985 345.327 70.4674 345.016 70.7631C344.491 71.2034 343.918 69.607 344.35 68.6609C344.518 68.2634 344.728 68.2124 344.963 68.2567C345.314 68.3387 345.534 68.6951 345.515 69.0696ZM350.807 69.2999C350.811 69.8321 350.767 70.7059 350.453 71.064C349.984 71.57 349.231 70.0263 349.576 69.044C349.714 68.6448 349.925 68.5627 350.162 68.5757C350.516 68.5954 350.796 68.9238 350.807 69.2999Z" fill="#482D1F"/>
<path d="M348.067 75.5632C348.277 75.5123 348.787 75.384 348.893 75.0457C348.896 74.9832 348.93 74.8913 348.904 74.8272C348.796 74.6022 348.435 74.7074 347.902 74.7092C346.953 74.7193 346.19 74.5831 346.19 74.5831C346.19 74.5831 346.366 75.2187 346.504 75.4141C346.776 75.8986 347.737 75.6389 348.067 75.5632Z" fill="#482D1F"/>
<path d="M346.369 69.1794L346.374 69.1363L346.37 69.1577L346.369 69.1794ZM345.765 72.4509C345.692 72.7998 345.934 73.1597 346.267 73.2376C346.341 73.2489 346.341 73.2489 346.388 73.2554C346.885 73.3235 347.196 73.3558 347.731 73.3855C347.894 73.3945 348.033 73.2621 348.042 73.0897C348.051 72.9174 347.925 72.7703 347.762 72.7613C347.244 72.7326 346.947 72.7018 346.465 72.6356L346.369 72.6226C346.369 72.6211 346.344 72.5838 346.345 72.5779L346.955 69.2553L346.96 69.2121L347.052 67.3709C347.06 67.1986 346.935 67.0515 346.772 67.0425C346.609 67.0335 346.469 67.1659 346.461 67.3382L346.37 69.1577L345.765 72.4509Z" fill="#482D1F"/>
<path d="M366.636 68.8238C366.68 69.7494 366.426 70.7236 365.955 71.4774C365.379 72.4293 364.655 72.9028 363.748 73.2284C363.594 73.284 363.511 73.4615 363.563 73.6249C363.616 73.7883 363.784 73.8757 363.939 73.8202C364.338 73.677 364.657 73.5316 365.035 73.2844C365.592 72.9203 366.075 72.4395 366.451 71.8176C366.989 70.957 367.277 69.8514 367.227 68.7924C367.218 68.62 367.079 68.4873 366.916 68.496C366.753 68.5047 366.627 68.6514 366.636 68.8238Z" fill="#482D1F"/>
<path d="M389.243 179.786C389.29 179.532 389.523 179.366 389.764 179.416C390.004 179.465 390.161 179.712 390.114 179.966C389.82 181.562 389.554 182.794 388.932 185.532C388.313 188.257 388.049 189.481 387.757 191.059C387.711 191.313 387.478 191.479 387.237 191.43C386.996 191.38 386.839 191.134 386.886 190.88C387.181 189.284 387.447 188.051 388.069 185.313C388.688 182.588 388.952 181.365 389.243 179.786ZM395.244 178.411C395.306 178.161 395.548 178.01 395.786 178.076C396.023 178.141 396.165 178.397 396.103 178.647C395.681 180.363 395.382 181.702 394.738 184.687C394.092 187.682 393.791 189.027 393.366 190.755C393.304 191.006 393.062 191.156 392.824 191.091C392.587 191.026 392.445 190.77 392.507 190.519C392.929 188.803 393.228 187.465 393.872 184.479C394.518 181.484 394.819 180.14 395.244 178.411Z" fill="#482D1F"/>
<path d="M295.291 95.3937C305.749 95.3937 314.227 86.3694 314.227 75.2374C314.227 64.1054 305.749 55.0812 295.291 55.0812C284.833 55.0812 276.354 64.1054 276.354 75.2374C276.354 86.3694 284.833 95.3937 295.291 95.3937Z" fill="#474BFF"/>
<path d="M295.342 74.7667C293.253 74.7667 291.559 73.0001 291.559 70.8208C291.559 68.6415 293.253 66.8749 295.342 66.8749C297.431 66.8749 299.125 68.6415 299.125 70.8208C299.125 73.0001 297.431 74.7667 295.342 74.7667ZM295.342 76.7397C299.129 76.7397 302.199 79.9417 302.199 83.8916H288.485C288.485 79.9417 291.555 76.7397 295.342 76.7397Z" fill="#F2F6FB"/>
<path d="M93.2917 268.942V269C93.2917 269.75 93.9131 270.375 94.6232 270.375H116.963L109.092 285.625C103.47 296.5 97.8779 307.344 92.2858 318.219L83.0246 336.156C82.6992 336.781 82.9655 337.594 83.5868 337.969L83.7052 338.031C84.3265 338.406 85.1254 338.188 85.4213 337.594L120.069 270.375H143.148L177.796 337.594C178.092 338.188 178.891 338.375 179.512 338.031L179.63 337.969C180.252 337.594 180.518 336.781 180.192 336.156L170.931 318.219C165.31 307.344 159.717 296.5 154.125 285.625L146.254 270.375H175.873C176.612 270.375 177.204 269.75 177.204 269V268.844C177.204 268.094 176.583 267.469 175.873 267.469H155.753C142.645 267.469 129.508 267.469 116.371 267.469H95.9042L93.4101 246.156C91.694 231.656 90.0075 217.125 88.2913 202.594L85.4805 178.594C85.3917 177.75 84.7112 177.125 83.9715 177.219L83.8235 177.25C83.1134 177.344 82.6104 178.125 82.6992 178.906L93.2622 268.781C93.2698 268.836 93.2797 268.889 93.2917 268.942Z" fill="#D8DEED"/>
<path d="M157.626 335.747C157.444 335.651 157.241 335.596 157.027 335.596H141.028L111.666 312.492L122.792 296.031L140.604 309.688C141.58 313.188 142.586 316.688 143.592 320.219C144.125 322.063 144.657 323.875 145.19 325.688C146.847 326.375 148.267 327 149.273 327.469C151.196 328.344 152.824 329.156 154.599 330.375C154.599 330.375 156.138 331.375 156.996 332.813C157.262 333.281 157.499 333.813 157.647 334.375C157.706 334.625 157.706 334.875 157.735 335.094C157.726 335.299 157.682 335.529 157.626 335.747ZM213.045 335.695C212.948 335.671 212.846 335.659 212.742 335.659H165.105C165.016 335.659 164.929 335.668 164.844 335.686L164.382 316.204L186.753 316.136C189.487 318.023 191.265 319.386 192.088 320.225C193.322 321.484 194.643 322.648 196.08 323.652C199.553 326.058 201.358 326.024 206.639 328.646C208.071 329.339 209.445 330.126 210.791 331.007C212.137 331.889 212.598 332.881 212.978 334.374C213.041 334.623 213.045 334.873 213.078 335.091C213.082 335.338 213.07 335.535 213.045 335.695Z" fill="#474961"/>
<path d="M139.95 338.157C139.92 338.137 139.892 338.116 139.863 338.094L110.157 314.719C109.565 314.25 109.447 313.344 109.891 312.719C110.334 312.094 111.192 311.969 111.784 312.438L141.173 335.563H157.173C157.912 335.563 158.534 336.219 158.534 337C158.534 337.781 157.912 338.438 157.173 338.438H140.751C140.45 338.438 140.174 338.334 139.95 338.157ZM165.25 335.625H212.887C213.623 335.625 214.219 336.255 214.219 337.031C214.219 337.808 213.623 338.438 212.887 338.438H165.25C164.515 338.438 163.919 337.808 163.919 337.031C163.919 336.255 164.515 335.625 165.25 335.625Z" fill="#FF5645"/>
<path d="M196.767 256.162C194.562 268.401 193.66 286.34 195.822 297.632C195.822 297.632 198.067 317.039 196.495 317.164C196.113 317.195 192.057 317.382 191.628 317.414C180.951 318.164 162.409 319.664 159.644 319.664C157.801 319.664 156.88 318.414 156.88 315.914L156.278 309.201V309.146C154.239 311.716 152.122 314.381 149.928 317.14C146.663 318.163 141.725 316.697 135.114 312.742C128.502 308.786 123.384 304.887 119.761 301.044C118.015 299.856 113.767 293.289 114.891 291.57L122.318 280.133L126.756 273.289C127.999 271.351 128.937 270.067 130.268 268.035C130.268 268.004 130.507 267.633 130.507 267.601C130.033 267.601 130.573 267.195 127.2 267.164C123.827 267.133 105.66 266.726 98.7064 256.133C95.9326 251.906 95.718 247.226 95.5108 245.133C94.7415 236.987 96.7762 230.385 101.615 225.328C102.911 224.323 103.865 223.726 104.476 223.539C105.452 223.226 110.601 223.07 111.607 223.008L132.259 222.726C142.087 222.588 150.293 222.471 156.875 222.374L156.88 222.32L156.875 222.374C170.178 222.178 176.855 222.067 176.908 222.039C177.026 221.976 189.791 222.539 193.223 224.633C199.797 228.701 203.254 241.519 196.767 256.162Z" fill="#FFC855"/>
<path opacity="0.2" d="M196.702 256.284C194.506 268.522 193.611 286.415 195.77 297.686C195.77 297.686 198.015 317.093 196.442 317.218C196.061 317.249 192.004 317.436 191.575 317.468C180.898 318.218 162.356 319.718 159.592 319.718C157.749 319.718 156.827 318.468 156.827 315.968L156.227 309.266C181.717 277.139 195.059 259.807 196.252 257.27C196.407 256.941 196.557 256.612 196.702 256.284ZM156.815 222.527L156.827 222.374L156.815 222.527ZM167.99 222.358C167.984 222.358 167.979 222.358 167.973 222.358L167.552 222.28H167.599C167.73 222.306 167.86 222.332 167.99 222.358Z" fill="#8C2A00"/>
<path d="M143.926 246.757C142.467 249.089 140.929 251.355 137.196 256.748C133.451 262.159 131.908 264.433 130.434 266.788C130.254 267.076 130.329 267.464 130.601 267.654C130.874 267.844 131.241 267.765 131.421 267.477C132.881 265.145 134.419 262.879 138.152 257.486C141.897 252.074 143.439 249.801 144.914 247.446C145.094 247.158 145.019 246.77 144.746 246.58C144.474 246.39 144.107 246.469 143.926 246.757Z" fill="#482D1F"/>
<path d="M193.435 166.678C194.45 167.517 194.639 169.055 193.856 170.114C193.844 170.13 193.832 170.146 193.82 170.162L181.623 185.82C180.997 186.624 179.87 186.747 179.083 186.097C178.297 185.447 178.137 184.262 178.723 183.425L190.144 167.126C190.901 166.046 192.353 165.829 193.388 166.64C193.404 166.653 193.42 166.665 193.435 166.678Z" fill="#474961"/>
<path d="M190.958 169.873C193.551 172.016 197.242 171.604 199.201 168.951C200.143 167.675 198.805 164.995 199.108 161.035C199.179 160.11 199.779 158.618 200.909 156.559L200.909 156.559C200.99 156.411 200.941 156.219 200.799 156.131C200.73 156.088 200.647 156.076 200.571 156.098C194.653 157.79 191.066 159.486 189.809 161.188C187.85 163.841 188.364 167.729 190.958 169.873Z" fill="#F2F6FB"/>
<path d="M193.751 166.128C194.361 166.633 196.343 165.352 196.638 166.031C197.627 168.309 197.616 171.38 199.201 169.234C200.19 167.895 198.839 165.124 199.2 161C199.285 160.033 199.927 158.467 201.126 156.301L201.126 156.301C201.208 156.152 201.16 155.961 201.018 155.872C200.948 155.828 200.864 155.817 200.786 155.84C194.639 157.681 190.904 159.496 189.583 161.285C188.4 162.888 189.363 163.73 191.183 164.006C191.82 164.103 192.246 163.317 193.141 163.141C194.137 162.945 193.157 165.637 193.751 166.128Z" fill="#474BFF"/>
<path d="M135.776 166.883C143.087 169.616 147.755 177.581 146.442 185.961L140.538 222.571L106.651 222.984C104.709 222.602 103.336 221.732 102.532 220.375C101.325 218.339 101.635 215.772 101.792 214.784L107.69 178.585C109.146 169.399 117.293 163.263 125.972 164.778L126.547 161.826C126.612 161.49 126.923 161.278 127.24 161.352L135.863 163.35C136.181 163.423 136.385 163.755 136.32 164.09L135.776 166.883Z" fill="#FF4F03"/>
<path d="M128.913 150.855C128.335 157.559 128.024 160.944 127.979 161.011C127.932 161.079 130.6 161.713 135.982 162.911L136.444 160.319C136.57 160.37 136.699 160.422 136.832 160.475C139.325 161.515 139.176 161.422 139.354 161.483C141.217 161.996 142.804 161.946 143.097 161.911C145.562 161.693 148.335 156.849 149.473 149.886C149.578 149.319 149.595 148.752 149.641 148.186L149.751 142.556C149.782 141.297 149.518 140.043 148.935 138.949C148.69 138.48 148.445 138.043 148.173 137.7C145.048 133.398 139.481 134.249 138.485 134.387C138.367 134.388 138.25 134.421 138.133 134.423C137.022 134.719 136.018 134.51 134.959 134.491C134.488 134.497 134.115 134.91 134.097 135.414L134.13 143.463C134.117 144.218 132.07 142.482 131.275 142.429C129.861 142.32 128.335 144.664 127.841 146.21C127.29 147.884 127.798 149.576 128.734 150.665C128.793 150.732 128.852 150.795 128.913 150.855ZM148.689 206.648C149.312 206.425 149.933 206.202 150.553 205.977C155.295 204.257 159.962 202.501 165.026 200.55C166.733 199.911 167.465 199.591 168.689 199.078C172.678 197.391 187.688 190.907 188.404 190.299C190.933 189.154 189.211 179.486 189.19 175.959C185.001 177.905 179.242 180.395 171.913 183.429C170.435 184.236 169.372 185.29 168.612 186.169C167.363 186.261 157.382 188.051 148.186 189.635C148.438 189.59 148.69 189.546 148.943 189.502C148.868 186.989 148.412 183.151 146.52 178.975C146.998 181.151 147.09 183.461 146.726 185.803L146.055 190C140.676 190.918 135.84 191.71 133.568 191.971C133.437 191.572 132.397 186.873 130.447 177.873L112.955 183.025C113.373 185.61 114.362 189.755 115.924 195.46C118.267 204.019 119.19 210.404 125.196 212.314C126.596 212.761 128.407 212.706 132.422 211.694C136.201 210.741 139.711 209.689 143.086 208.577L140.816 222.775L140.804 222.775L140.811 222.817L173.06 222.558C174.761 222.513 172.77 221.256 167.086 218.786C161.403 216.317 155.612 214.21 149.713 212.466L149.5 206.359C149.23 206.456 148.96 206.552 148.689 206.648ZM109.077 174.273C113.398 176.297 117.57 176.558 121.595 175.055C125.619 173.553 127.648 170.131 127.681 164.79C124.153 163.619 120.458 163.906 116.595 165.649C112.733 167.392 110.227 170.267 109.077 174.273Z" fill="#DB9E75"/>
<path d="M136.016 162.924L133.522 159.134L136.46 160.525L136.016 162.924Z" fill="#482D1F"/>
<path d="M147.971 148.825C148.003 148.452 148.277 148.157 148.63 148.133C148.866 148.118 149.081 148.227 149.2 148.651C149.478 149.619 148.669 151.092 148.246 150.565C147.925 150.216 147.951 149.35 147.971 148.825ZM142.72 148.987C142.752 148.615 143.026 148.319 143.379 148.296C143.614 148.28 143.829 148.389 143.949 148.813C144.227 149.782 143.418 151.254 142.995 150.727C142.674 150.378 142.67 149.515 142.72 148.987Z" fill="#482D1F"/>
<path d="M144.61 155.191C144.4 155.142 143.886 154.987 143.773 154.645C143.768 154.582 143.732 154.489 143.757 154.423C143.861 154.226 144.251 154.294 144.785 154.322C145.734 154.352 146.493 154.205 146.493 154.205C146.493 154.205 146.302 154.854 146.166 155.022C145.908 155.548 144.941 155.264 144.61 155.191Z" fill="#482D1F"/>
<path d="M149.987 146.358C150.276 146.275 150.367 145.889 150.145 145.683C149.863 145.449 149.399 145.165 148.809 145.173C147.599 145.192 146.329 146.037 147.655 146.39C148.5 146.649 149.435 146.49 149.987 146.358ZM144.282 146.746C144.572 146.663 144.662 146.277 144.411 146.073C144.129 145.839 143.665 145.554 143.045 145.565C141.835 145.584 140.568 146.46 141.891 146.781C142.766 147.038 143.701 146.88 144.282 146.746ZM129.044 155.833C130.13 155.06 130.864 153.838 131.245 152.168C130.706 152.001 129.876 151.643 129.199 150.829C128.29 149.736 127.781 148.07 128.335 146.455C128.831 144.904 130.278 143.688 131.696 143.798C132.494 143.851 133.123 144.317 133.213 144.379C134.204 145.156 134.639 146.16 134.639 146.16L135.287 147.895C136.296 147.14 138.319 144.264 141.356 139.268C143.059 139.06 144.373 138.917 145.3 138.839C146.69 138.722 148.184 138.881 148.744 138.644C148.705 138.751 148.665 138.858 148.625 138.965C148.724 138.779 148.775 138.675 148.775 138.675C148.802 138.581 148.32 138.113 148.318 138.05C145.365 133.89 139.976 134.237 138.976 134.375C138.859 134.377 138.741 134.41 138.623 134.38C136.976 134.588 135.591 134.636 134.648 134.679C130.169 134.826 128.415 134.216 126.172 135.441C125.764 135.667 124.803 136.214 123.973 137.328C123.492 137.952 123.133 138.615 122.867 139.286C120.296 139.179 118.478 140.533 117.415 143.348C115.996 147.107 118.228 150.536 120.99 151.951C122.169 155.052 125.367 157.302 127.926 156.429C128.387 156.272 128.759 156.073 129.044 155.833Z" fill="#482D1F"/>
<path d="M146.447 149.177L146.442 149.131L146.446 149.154L146.447 149.177ZM147.029 152.451L147.034 152.486C147.058 152.827 146.863 153.159 146.55 153.237C146.493 153.247 146.46 153.252 146.428 153.256C146.122 153.299 145.901 153.317 145.108 153.371C144.947 153.382 144.807 153.251 144.794 153.078C144.782 152.906 144.902 152.757 145.063 152.746C145.842 152.693 146.057 152.675 146.346 152.635C146.376 152.631 146.406 152.627 146.436 152.622C146.429 152.623 146.451 152.585 146.452 152.538L145.869 149.241L145.864 149.195L145.791 147.348C145.784 147.175 145.909 147.03 146.07 147.025C146.231 147.02 146.367 147.156 146.374 147.329L146.446 149.154L147.029 152.451Z" fill="#482D1F"/>
<path d="M130.032 177.789L130.017 175.266C130.016 175.007 130.211 174.798 130.453 174.799C130.695 174.801 130.892 175.013 130.894 175.272L130.909 177.795C130.91 178.054 130.715 178.263 130.473 178.261C130.231 178.26 130.034 178.048 130.032 177.789Z" fill="#482D1F"/>
<path opacity="0.2" d="M146.461 179.032C146.972 180.124 147.477 181.542 147.977 183.288C148.477 185.033 148.771 187.085 148.859 189.444L145.984 189.922C146.237 188.417 146.411 187.338 146.507 186.687C146.689 185.459 146.887 184.374 146.882 183.522C146.873 181.995 146.732 180.498 146.461 179.032ZM143.022 208.305L149.424 206.114L149.639 212.152C160.137 215.549 167.494 218.365 171.71 220.6C172.559 221.05 173.087 221.371 173.293 221.564C173.38 221.65 173.448 221.724 173.497 221.786C173.619 221.939 173.499 222.095 173.118 222.121C172.863 222.138 162.072 222.217 140.744 222.357L143.022 208.305Z" fill="#8C2A00"/>
</svg>
