<svg width="190" height="25" viewBox="0 0 190 25" fill="none" xmlns="http://www.w3.org/2000/svg">
<path d="M6.79545 24H0.75L8.60227 0.727272H16.0909L23.9432 24H17.8977L12.4318 6.59091H12.25L6.79545 24ZM5.98864 14.8409H18.625V19.1136H5.98864V14.8409ZM40.5284 0.727272H46.142V15.7386C46.142 17.4735 45.7292 18.9848 44.9034 20.2727C44.0777 21.553 42.9261 22.5455 41.4489 23.25C39.9716 23.947 38.2557 24.2955 36.3011 24.2955C34.3239 24.2955 32.5966 23.947 31.1193 23.25C29.642 22.5455 28.4943 21.553 27.6761 20.2727C26.858 18.9848 26.4489 17.4735 26.4489 15.7386V0.727272H32.0739V15.25C32.0739 16.053 32.2481 16.7689 32.5966 17.3977C32.9527 18.0265 33.4489 18.5189 34.0852 18.875C34.7216 19.2311 35.4602 19.4091 36.3011 19.4091C37.142 19.4091 37.8769 19.2311 38.5057 18.875C39.142 18.5189 39.6383 18.0265 39.9943 17.3977C40.3504 16.7689 40.5284 16.053 40.5284 15.25V0.727272ZM48.9062 5.29545V0.727272H68.5767V5.29545H61.5199V24H55.9744V5.29545H48.9062ZM92.2273 12.3636C92.2273 14.9242 91.7348 17.0947 90.75 18.875C89.7652 20.6553 88.4318 22.0076 86.75 22.9318C85.0758 23.8561 83.197 24.3182 81.1136 24.3182C79.0227 24.3182 77.1402 23.8523 75.4659 22.9205C73.7917 21.9886 72.4621 20.6364 71.4773 18.8636C70.5 17.0833 70.0114 14.9167 70.0114 12.3636C70.0114 9.80303 70.5 7.63258 71.4773 5.85227C72.4621 4.07197 73.7917 2.7197 75.4659 1.79545C77.1402 0.871211 79.0227 0.40909 81.1136 0.40909C83.197 0.40909 85.0758 0.871211 86.75 1.79545C88.4318 2.7197 89.7652 4.07197 90.75 5.85227C91.7348 7.63258 92.2273 9.80303 92.2273 12.3636ZM86.4773 12.3636C86.4773 10.8485 86.2614 9.56818 85.8295 8.52273C85.4053 7.47727 84.7917 6.6856 83.9886 6.14773C83.1932 5.60985 82.2348 5.34091 81.1136 5.34091C80 5.34091 79.0417 5.60985 78.2386 6.14773C77.4356 6.6856 76.8182 7.47727 76.3864 8.52273C75.9621 9.56818 75.75 10.8485 75.75 12.3636C75.75 13.8788 75.9621 15.1591 76.3864 16.2045C76.8182 17.25 77.4356 18.0417 78.2386 18.5795C79.0417 19.1174 80 19.3864 81.1136 19.3864C82.2348 19.3864 83.1932 19.1174 83.9886 18.5795C84.7917 18.0417 85.4053 17.25 85.8295 16.2045C86.2614 15.1591 86.4773 13.8788 86.4773 12.3636Z" fill="#0064CC"/>
<path d="M108.091 7.70454C108.015 6.87121 107.678 6.22348 107.08 5.76136C106.489 5.29167 105.644 5.05682 104.545 5.05682C103.818 5.05682 103.212 5.15151 102.727 5.34091C102.242 5.5303 101.879 5.79167 101.636 6.125C101.394 6.45076 101.269 6.82576 101.261 7.25C101.246 7.59848 101.314 7.9053 101.466 8.17045C101.625 8.43561 101.852 8.67045 102.148 8.875C102.451 9.07197 102.814 9.24621 103.239 9.39773C103.663 9.54924 104.14 9.68182 104.67 9.79545L106.67 10.25C107.822 10.5 108.837 10.8333 109.716 11.25C110.602 11.6667 111.345 12.1629 111.943 12.7386C112.549 13.3144 113.008 13.9773 113.318 14.7273C113.629 15.4773 113.788 16.3182 113.795 17.25C113.788 18.7197 113.417 19.9811 112.682 21.0341C111.947 22.0871 110.89 22.8939 109.511 23.4545C108.14 24.0152 106.485 24.2955 104.545 24.2955C102.598 24.2955 100.902 24.0038 99.4545 23.4205C98.0076 22.8371 96.8826 21.9508 96.0795 20.7614C95.2765 19.572 94.8636 18.0682 94.8409 16.25H100.227C100.273 17 100.473 17.625 100.83 18.125C101.186 18.625 101.674 19.0038 102.295 19.2614C102.924 19.5189 103.652 19.6477 104.477 19.6477C105.235 19.6477 105.879 19.5455 106.409 19.3409C106.947 19.1364 107.36 18.8523 107.648 18.4886C107.936 18.125 108.083 17.7083 108.091 17.2386C108.083 16.7992 107.947 16.4242 107.682 16.1136C107.417 15.7955 107.008 15.5227 106.455 15.2955C105.909 15.0606 105.212 14.8447 104.364 14.6477L101.932 14.0795C99.9167 13.6174 98.3295 12.8712 97.1705 11.8409C96.0114 10.803 95.4356 9.40151 95.4432 7.63636C95.4356 6.19697 95.822 4.93561 96.6023 3.85227C97.3826 2.76894 98.4621 1.92424 99.8409 1.31818C101.22 0.712121 102.792 0.40909 104.557 0.40909C106.36 0.40909 107.924 0.715908 109.25 1.32954C110.583 1.93561 111.617 2.78788 112.352 3.88636C113.087 4.98485 113.462 6.25757 113.477 7.70454H108.091ZM116.636 24V0.727272H122.261V10.0682H131.432V0.727272H137.045V24H131.432V14.6477H122.261V24H116.636ZM146.199 0.727272V24H140.574V0.727272H146.199ZM169.537 0.727272V24H164.764L155.503 10.5682H155.355V24H149.73V0.727272H154.571L163.73 14.1364H163.923V0.727272H169.537ZM173.074 24V0.727272H189.301V5.29545H178.699V10.0682H188.472V14.6477H178.699V19.4318H189.301V24H173.074Z" fill="#F6EB9A"/>
</svg>
