<svg width="75" height="52" viewBox="0 0 75 52" fill="none" xmlns="http://www.w3.org/2000/svg">
<g clip-path="url(#clip0_8140_6675)">
<path d="M37.8354 51.994C34.7898 51.7169 33.5848 50.6869 33.5848 48.5004C33.5848 46.3139 34.7239 45.1694 36.8582 45.1514C38.9925 45.1333 40.4193 46.5669 40.1675 48.4763C39.9817 49.8677 38.4769 51.0905 37.8354 51.994Z" fill="#5497DD"/>
<path d="M30.2935 46.3561C29.4782 45.1514 28.1292 43.9467 27.9734 42.6457C27.7575 40.7845 29.1304 39.5436 31.1628 39.5858C33.1952 39.6279 34.5441 40.7904 34.1964 42.742C33.9566 44.0551 32.6017 45.1514 31.7443 46.3561L30.2935 46.3561Z" fill="#5497DD"/>
<path d="M43.2551 46.3982C40.4794 45.7959 39.4362 44.6454 39.4842 42.6698C39.5321 40.6941 40.6832 39.5858 42.7096 39.6581C44.7359 39.7303 46.0729 40.8506 45.6592 42.7842C45.3954 44.0852 44.0945 45.1935 43.2551 46.3982Z" fill="#5497DD"/>
<path d="M36.0974 40.3749C35.312 39.2064 33.7712 37.9174 33.9391 36.9115C34.1249 35.7489 35.7017 34.2069 36.9007 33.978C38.5734 33.6527 39.8264 34.99 39.8024 36.9597C39.7784 38.9293 38.6993 39.8388 36.0974 40.3749Z" fill="#5497DD"/>
<path d="M25.354 39.905C23.4056 39.8388 22.0027 38.7667 22.4343 36.9596C22.7281 35.755 24.3108 34.8575 25.318 33.8215C26.3312 34.8515 27.9259 35.7429 28.2137 36.9476C28.6394 38.7365 27.2545 39.8388 25.354 39.905Z" fill="#5497DD"/>
<path d="M47.818 40.411C47.0026 39.2846 45.7556 38.2546 45.4799 37.0077C45.0722 35.2007 46.3911 33.9539 48.2197 33.8635C50.0482 33.7732 51.4871 34.8152 51.2473 36.7126C51.0854 37.9835 49.9883 39.1219 49.3108 40.3266L47.818 40.411Z" fill="#5497DD"/>
<path d="M53.3275 34.3515C52.6261 33.2552 51.2412 32.0446 51.4031 31.1049C51.5829 30.0388 53.0398 28.6412 54.1549 28.4063C55.9954 28.0269 57.2544 29.5388 56.9307 31.3217C56.7208 32.4541 55.4319 33.3878 54.6225 34.4118L53.3275 34.3515Z" fill="#5497DD"/>
<path d="M42.1159 34.4057C41.3125 33.3757 40.0355 32.436 39.8197 31.2975C39.478 29.4905 40.7729 28.0208 42.6015 28.4123C43.7106 28.6532 45.1494 30.0507 45.3353 31.1168C45.4912 32.0625 44.1362 33.2672 43.4108 34.3575C42.9792 34.3514 42.5475 34.3876 42.1159 34.4057Z" fill="#5497DD"/>
<path d="M22.7934 31.9421C21.6783 32.6047 20.6172 33.6828 19.4361 33.8394C17.6735 34.0743 16.4385 32.689 16.9121 31.0205C17.2299 29.9363 18.7107 28.563 19.7179 28.4786C20.7251 28.3943 21.8042 29.8339 22.8594 30.6049L22.7934 31.9421Z" fill="#5497DD"/>
<path d="M34.2986 31.9421C33.1895 32.6047 31.9605 33.9238 30.9892 33.7491C30.018 33.5744 29.1547 31.9842 28.2554 31.0145C29.2266 30.111 30.1439 28.6052 31.1871 28.4847C32.2302 28.3642 33.2914 29.8098 34.3525 30.5688L34.2986 31.9421Z" fill="#5497DD"/>
<path d="M13.7769 29.2014C12.482 27.3944 11.2709 26.4247 11.139 25.3405C10.9352 23.6238 12.2661 22.3287 13.9688 22.8346C14.964 23.1177 16.211 24.5213 16.2769 25.4971C16.3429 26.4729 15.0239 27.4607 13.7769 29.2014Z" fill="#5497DD"/>
<path d="M26.0433 22.3046C26.6968 23.3045 27.7639 24.2502 27.9258 25.3163C28.1836 27.0691 26.9066 28.3281 25.228 27.9064C24.2088 27.6595 22.8299 26.2801 22.7819 25.3405C22.734 24.4008 24.0289 23.2564 24.7364 22.2083L26.0433 22.3046Z" fill="#5497DD"/>
<path d="M55.9889 25.3163C57.7875 24.0755 58.8247 22.7685 59.7839 22.8287C60.7431 22.889 62.182 24.1839 62.4338 25.1899C62.9014 26.9366 61.5705 28.2015 59.8498 27.8883C58.7407 27.7257 57.7875 26.5873 55.9889 25.3163Z" fill="#5497DD"/>
<path d="M48.5371 29.1412C47.2121 27.4908 45.8092 26.5089 45.8332 25.5632C45.8572 24.6175 47.404 22.7925 48.0634 22.8889C48.7018 23.0379 49.2957 23.3374 49.7961 23.7627C50.2965 24.1879 50.689 24.7266 50.9411 25.3344C51.151 26.1235 49.7301 27.3643 48.5371 29.1412Z" fill="#5497DD"/>
<path d="M69.3643 19.4074C67.6137 20.7144 66.6424 21.9914 65.6412 22.0155C64.8079 22.0155 63.1952 20.5097 63.2432 19.805C63.3451 18.781 64.5381 17.2691 65.4794 17.0945C66.4206 16.9198 67.5297 18.2328 69.3643 19.4074Z" fill="#5497DD"/>
<path d="M19.6405 23.3106C18.3815 21.5638 17.0086 20.4856 17.1105 19.564C17.2124 18.6425 18.6333 17.2571 19.6525 17.0825C20.3419 16.962 21.9846 18.534 22.0146 19.3954C22.0566 20.4193 20.8215 21.4855 19.6405 23.3106Z" fill="#5497DD"/>
<path d="M53.465 22.5335C52.8655 21.4975 51.6305 20.3531 51.7864 19.4556C51.9422 18.5581 53.4231 17.745 54.3163 16.9077C55.0897 17.7751 56.4506 18.6303 56.4746 19.5278C56.4746 20.5217 55.3175 21.5456 54.676 22.5395L53.465 22.5335Z" fill="#5497DD"/>
<path d="M7.58357 22.5817C6.87614 21.5939 5.55119 20.5398 5.64112 19.6243C5.73105 18.7087 7.1759 17.8173 8.03921 16.9138C8.86055 17.7269 10.2694 18.4799 10.3474 19.3593C10.4373 20.3592 9.33417 21.4675 8.75264 22.5216L7.58357 22.5817Z" fill="#5497DD"/>
<path d="M2.4696 17.3716C1.2286 15.7392 -0.0184027 14.8116 -0.000416858 13.9081C0.0175685 13.0046 1.34251 11.577 2.12788 11.5589C2.91325 11.5408 4.44203 12.7637 4.56793 13.6431C4.69383 14.5225 3.50677 15.6007 2.4696 17.3716Z" fill="#5497DD"/>
<path d="M13.7529 17.3655C12.6618 15.6549 11.5107 14.6429 11.6007 13.7515C11.6906 12.86 13.1055 11.4926 13.8429 11.5528C14.7122 11.6191 16.0491 12.9623 16.1211 13.8357C16.193 14.7091 14.946 15.6789 13.7529 17.3655Z" fill="#5497DD"/>
<path d="M75 13.637C73.3513 14.8899 72.3981 16.1668 71.5348 16.1126C70.6715 16.0583 69.2746 14.7212 69.2086 13.8658C69.1427 13.0105 70.4976 11.6493 71.3669 11.5288C72.2362 11.4084 73.2734 12.5709 75 13.637Z" fill="#5497DD"/>
<path d="M60.0003 17.3655C58.8433 15.7091 57.6442 14.7453 57.6922 13.8538C57.7401 12.9623 59.1011 11.5227 59.8325 11.5528C60.7138 11.589 62.1226 12.8539 62.2306 13.7213C62.3385 14.5887 61.1334 15.6308 60.0003 17.3655Z" fill="#5497DD"/>
<path d="M7.94922 11.3662C6.87608 9.73991 5.76097 8.78817 5.86289 8.00512C5.98279 7.13173 7.21781 6.40892 7.96721 5.59576C8.76457 6.42699 9.99958 7.15578 10.2034 8.10747C10.3473 8.81824 9.1063 9.80014 7.94922 11.3662Z" fill="#5497DD"/>
<path d="M65.5039 11.4083C64.4668 9.72776 63.3876 8.75804 63.5195 7.98704C63.6634 7.10762 64.8804 6.40293 65.6358 5.62592C66.4032 6.46317 67.6082 7.22211 67.7881 8.17983C67.92 8.87252 66.691 9.82414 65.5039 11.4083Z" fill="#5497DD"/>
<path d="M2.30842 5.47532C1.22928 3.83093 0.204101 2.94545 0.240072 2.11422C0.240072 1.37936 1.49307 0.704738 2.18851 -9.1391e-08C2.92592 0.752925 4.04103 1.40951 4.26285 2.29495C4.42472 2.91536 3.36357 3.849 2.30842 5.47532Z" fill="#5497DD"/>
<path d="M74.7783 2.02993C73.1057 3.16836 72.2603 4.19826 71.427 4.18621C70.5937 4.17416 69.9342 3.03574 69.1848 2.37919C69.8742 1.59013 70.4678 0.325236 71.2891 0.144534C72.1105 -0.0361681 73.0217 1.02403 74.7783 2.02993Z" fill="#5497DD"/>
</g>
<defs>
<clipPath id="clip0_8140_6675">
<rect width="52" height="75" fill="white" transform="translate(75) rotate(90)"/>
</clipPath>
</defs>
</svg>
