<svg width="323" height="49" viewBox="0 0 323 49" fill="none" xmlns="http://www.w3.org/2000/svg">
<path d="M0.642046 38V3.09091H9.07955V31.1477H23.6023V38H0.642046ZM40.1918 38.4943C37.4418 38.4943 35.0781 37.9318 33.1009 36.8068C31.1349 35.6705 29.6179 34.0909 28.5497 32.0682C27.4929 30.0341 26.9645 27.6761 26.9645 24.9943C26.9645 22.3011 27.4929 19.9432 28.5497 17.9205C29.6179 15.8864 31.1349 14.3068 33.1009 13.1818C35.0781 12.0455 37.4418 11.4773 40.1918 11.4773C42.9418 11.4773 45.2997 12.0455 47.2656 13.1818C49.2429 14.3068 50.7599 15.8864 51.8168 17.9205C52.8849 19.9432 53.419 22.3011 53.419 24.9943C53.419 27.6761 52.8849 30.0341 51.8168 32.0682C50.7599 34.0909 49.2429 35.6705 47.2656 36.8068C45.2997 37.9318 42.9418 38.4943 40.1918 38.4943ZM40.2429 32.2045C41.2429 32.2045 42.0895 31.8977 42.7827 31.2841C43.4759 30.6705 44.0043 29.8182 44.3679 28.7273C44.7429 27.6364 44.9304 26.375 44.9304 24.9432C44.9304 23.4886 44.7429 22.2159 44.3679 21.125C44.0043 20.0341 43.4759 19.1818 42.7827 18.5682C42.0895 17.9545 41.2429 17.6477 40.2429 17.6477C39.2088 17.6477 38.3338 17.9545 37.6179 18.5682C36.9134 19.1818 36.3736 20.0341 35.9986 21.125C35.6349 22.2159 35.4531 23.4886 35.4531 24.9432C35.4531 26.375 35.6349 27.6364 35.9986 28.7273C36.3736 29.8182 36.9134 30.6705 37.6179 31.2841C38.3338 31.8977 39.2088 32.2045 40.2429 32.2045ZM69.8935 48.3636C67.4048 48.3636 65.2741 48.017 63.5014 47.3239C61.7287 46.6307 60.3366 45.6818 59.3253 44.4773C58.3139 43.2727 57.706 41.9091 57.5014 40.3864L65.3935 39.9432C65.5412 40.4773 65.8139 40.9432 66.2116 41.3409C66.6207 41.7386 67.1491 42.0455 67.7969 42.2614C68.456 42.4773 69.2287 42.5852 70.1151 42.5852C71.5128 42.5852 72.6662 42.2443 73.5753 41.5625C74.4957 40.892 74.956 39.7159 74.956 38.0341V33.4318H74.6662C74.3366 34.2386 73.8366 34.9602 73.1662 35.5966C72.4957 36.233 71.6605 36.733 70.6605 37.0966C69.6719 37.4602 68.5355 37.642 67.2514 37.642C65.3423 37.642 63.5923 37.1989 62.0014 36.3125C60.4219 35.4148 59.1548 34.0284 58.2003 32.1534C57.2571 30.267 56.7855 27.8409 56.7855 24.875C56.7855 21.8182 57.2741 19.3011 58.2514 17.3239C59.2287 15.3352 60.5071 13.8636 62.0866 12.9091C63.6776 11.9545 65.3878 11.4773 67.2173 11.4773C68.5923 11.4773 69.7685 11.7159 70.7457 12.1932C71.7344 12.6591 72.5469 13.2614 73.1832 14C73.8196 14.7386 74.3026 15.5057 74.6321 16.3011H74.8707V11.8182H83.1719V38.1023C83.1719 40.3182 82.6151 42.1875 81.5014 43.7102C80.3878 45.233 78.831 46.3864 76.831 47.1705C74.831 47.9659 72.5185 48.3636 69.8935 48.3636ZM70.1491 31.5739C71.1605 31.5739 72.0241 31.3068 72.7401 30.7727C73.456 30.2386 74.0071 29.4716 74.3935 28.4716C74.7798 27.4716 74.973 26.2727 74.973 24.875C74.973 23.4545 74.7798 22.233 74.3935 21.2102C74.0185 20.1761 73.4673 19.3807 72.7401 18.8239C72.0241 18.267 71.1605 17.9886 70.1491 17.9886C69.1151 17.9886 68.2401 18.2727 67.5241 18.8409C66.8082 19.4091 66.2628 20.2102 65.8878 21.2443C65.5241 22.267 65.3423 23.4773 65.3423 24.875C65.3423 26.2727 65.5298 27.4716 65.9048 28.4716C66.2798 29.4716 66.8196 30.2386 67.5241 30.7727C68.2401 31.3068 69.1151 31.5739 70.1491 31.5739ZM100.69 48.3636C98.2017 48.3636 96.071 48.017 94.2983 47.3239C92.5256 46.6307 91.1335 45.6818 90.1222 44.4773C89.1108 43.2727 88.5028 41.9091 88.2983 40.3864L96.1903 39.9432C96.3381 40.4773 96.6108 40.9432 97.0085 41.3409C97.4176 41.7386 97.946 42.0455 98.5938 42.2614C99.2528 42.4773 100.026 42.5852 100.912 42.5852C102.31 42.5852 103.463 42.2443 104.372 41.5625C105.293 40.892 105.753 39.7159 105.753 38.0341V33.4318H105.463C105.134 34.2386 104.634 34.9602 103.963 35.5966C103.293 36.233 102.457 36.733 101.457 37.0966C100.469 37.4602 99.3324 37.642 98.0483 37.642C96.1392 37.642 94.3892 37.1989 92.7983 36.3125C91.2188 35.4148 89.9517 34.0284 88.9972 32.1534C88.054 30.267 87.5824 27.8409 87.5824 24.875C87.5824 21.8182 88.071 19.3011 89.0483 17.3239C90.0256 15.3352 91.304 13.8636 92.8835 12.9091C94.4744 11.9545 96.1847 11.4773 98.0142 11.4773C99.3892 11.4773 100.565 11.7159 101.543 12.1932C102.531 12.6591 103.344 13.2614 103.98 14C104.616 14.7386 105.099 15.5057 105.429 16.3011H105.668V11.8182H113.969V38.1023C113.969 40.3182 113.412 42.1875 112.298 43.7102C111.185 45.233 109.628 46.3864 107.628 47.1705C105.628 47.9659 103.315 48.3636 100.69 48.3636ZM100.946 31.5739C101.957 31.5739 102.821 31.3068 103.537 30.7727C104.253 30.2386 104.804 29.4716 105.19 28.4716C105.577 27.4716 105.77 26.2727 105.77 24.875C105.77 23.4545 105.577 22.233 105.19 21.2102C104.815 20.1761 104.264 19.3807 103.537 18.8239C102.821 18.267 101.957 17.9886 100.946 17.9886C99.9119 17.9886 99.0369 18.2727 98.321 18.8409C97.6051 19.4091 97.0597 20.2102 96.6847 21.2443C96.321 22.267 96.1392 23.4773 96.1392 24.875C96.1392 26.2727 96.3267 27.4716 96.7017 28.4716C97.0767 29.4716 97.6165 30.2386 98.321 30.7727C99.0369 31.3068 99.9119 31.5739 100.946 31.5739ZM119.283 38V11.8182H127.618V38H119.283ZM123.459 8.76705C122.288 8.76705 121.283 8.38068 120.442 7.60795C119.601 6.82386 119.18 5.88068 119.18 4.77841C119.18 3.6875 119.601 2.75568 120.442 1.98295C121.283 1.19886 122.288 0.806816 123.459 0.806816C124.641 0.806816 125.646 1.19886 126.476 1.98295C127.317 2.75568 127.737 3.6875 127.737 4.77841C127.737 5.88068 127.317 6.82386 126.476 7.60795C125.646 8.38068 124.641 8.76705 123.459 8.76705ZM141.259 23.0682V38H132.923V11.8182H140.849V16.625H141.139C141.719 15.0227 142.707 13.767 144.105 12.858C145.503 11.9375 147.168 11.4773 149.099 11.4773C150.94 11.4773 152.537 11.892 153.889 12.7216C155.253 13.5398 156.31 14.6875 157.06 16.1648C157.821 17.6307 158.196 19.3466 158.185 21.3125V38H149.849V22.9489C149.861 21.4943 149.491 20.358 148.741 19.5398C148.003 18.7216 146.974 18.3125 145.656 18.3125C144.781 18.3125 144.009 18.5057 143.338 18.892C142.679 19.267 142.168 19.8068 141.804 20.5114C141.452 21.2159 141.27 22.0682 141.259 23.0682ZM175.55 48.3636C173.061 48.3636 170.93 48.017 169.158 47.3239C167.385 46.6307 165.993 45.6818 164.982 44.4773C163.97 43.2727 163.362 41.9091 163.158 40.3864L171.05 39.9432C171.197 40.4773 171.47 40.9432 171.868 41.3409C172.277 41.7386 172.805 42.0455 173.453 42.2614C174.112 42.4773 174.885 42.5852 175.771 42.5852C177.169 42.5852 178.322 42.2443 179.232 41.5625C180.152 40.892 180.612 39.7159 180.612 38.0341V33.4318H180.322C179.993 34.2386 179.493 34.9602 178.822 35.5966C178.152 36.233 177.317 36.733 176.317 37.0966C175.328 37.4602 174.192 37.642 172.908 37.642C170.999 37.642 169.249 37.1989 167.658 36.3125C166.078 35.4148 164.811 34.0284 163.857 32.1534C162.913 30.267 162.442 27.8409 162.442 24.875C162.442 21.8182 162.93 19.3011 163.908 17.3239C164.885 15.3352 166.163 13.8636 167.743 12.9091C169.334 11.9545 171.044 11.4773 172.874 11.4773C174.249 11.4773 175.425 11.7159 176.402 12.1932C177.391 12.6591 178.203 13.2614 178.839 14C179.476 14.7386 179.959 15.5057 180.288 16.3011H180.527V11.8182H188.828V38.1023C188.828 40.3182 188.271 42.1875 187.158 43.7102C186.044 45.233 184.487 46.3864 182.487 47.1705C180.487 47.9659 178.175 48.3636 175.55 48.3636ZM175.805 31.5739C176.817 31.5739 177.68 31.3068 178.396 30.7727C179.112 30.2386 179.663 29.4716 180.05 28.4716C180.436 27.4716 180.629 26.2727 180.629 24.875C180.629 23.4545 180.436 22.233 180.05 21.2102C179.675 20.1761 179.124 19.3807 178.396 18.8239C177.68 18.267 176.817 17.9886 175.805 17.9886C174.771 17.9886 173.896 18.2727 173.18 18.8409C172.464 19.4091 171.919 20.2102 171.544 21.2443C171.18 22.267 170.999 23.4773 170.999 24.875C170.999 26.2727 171.186 27.4716 171.561 28.4716C171.936 29.4716 172.476 30.2386 173.18 30.7727C173.896 31.3068 174.771 31.5739 175.805 31.5739ZM216.676 38.4943C213.926 38.4943 211.563 37.9318 209.585 36.8068C207.619 35.6705 206.102 34.0909 205.034 32.0682C203.977 30.0341 203.449 27.6761 203.449 24.9943C203.449 22.3011 203.977 19.9432 205.034 17.9205C206.102 15.8864 207.619 14.3068 209.585 13.1818C211.563 12.0455 213.926 11.4773 216.676 11.4773C219.426 11.4773 221.784 12.0455 223.75 13.1818C225.727 14.3068 227.244 15.8864 228.301 17.9205C229.369 19.9432 229.903 22.3011 229.903 24.9943C229.903 27.6761 229.369 30.0341 228.301 32.0682C227.244 34.0909 225.727 35.6705 223.75 36.8068C221.784 37.9318 219.426 38.4943 216.676 38.4943ZM216.727 32.2045C217.727 32.2045 218.574 31.8977 219.267 31.2841C219.96 30.6705 220.489 29.8182 220.852 28.7273C221.227 27.6364 221.415 26.375 221.415 24.9432C221.415 23.4886 221.227 22.2159 220.852 21.125C220.489 20.0341 219.96 19.1818 219.267 18.5682C218.574 17.9545 217.727 17.6477 216.727 17.6477C215.693 17.6477 214.818 17.9545 214.102 18.5682C213.398 19.1818 212.858 20.0341 212.483 21.125C212.119 22.2159 211.938 23.4886 211.938 24.9432C211.938 26.375 212.119 27.6364 212.483 28.7273C212.858 29.8182 213.398 30.6705 214.102 31.2841C214.818 31.8977 215.693 32.2045 216.727 32.2045ZM251.065 26.6989V11.8182H259.384V38H251.44V33.125H251.168C250.588 34.7273 249.599 36 248.202 36.9432C246.815 37.875 245.139 38.3409 243.173 38.3409C241.389 38.3409 239.821 37.9318 238.469 37.1136C237.116 36.2955 236.065 35.1534 235.315 33.6875C234.565 32.2102 234.185 30.483 234.173 28.5057V11.8182H242.509V26.8693C242.52 28.2898 242.895 29.4091 243.634 30.2273C244.372 31.0455 245.378 31.4545 246.651 31.4545C247.48 31.4545 248.224 31.2727 248.884 30.9091C249.554 30.5341 250.082 29.9943 250.469 29.2898C250.866 28.5739 251.065 27.7102 251.065 26.6989ZM279.467 11.8182V17.9545H262.95V11.8182H279.467ZM266.411 5.54545H274.746V29.767C274.746 30.2784 274.825 30.6932 274.984 31.0114C275.155 31.3182 275.399 31.5398 275.717 31.6761C276.036 31.8011 276.416 31.8636 276.859 31.8636C277.178 31.8636 277.513 31.8352 277.865 31.7784C278.229 31.7102 278.501 31.6534 278.683 31.608L279.945 37.625C279.547 37.7386 278.984 37.8807 278.257 38.0511C277.541 38.2216 276.683 38.3295 275.683 38.375C273.729 38.4659 272.053 38.2386 270.655 37.6932C269.268 37.1364 268.206 36.2727 267.467 35.1023C266.74 33.9318 266.388 32.4602 266.411 30.6875V5.54545ZM288.408 38.4943C287.18 38.4943 286.129 38.0625 285.254 37.1989C284.391 36.3352 283.964 35.2898 283.976 34.0625C283.964 32.858 284.391 31.8295 285.254 30.9773C286.129 30.1136 287.18 29.6818 288.408 29.6818C289.567 29.6818 290.589 30.1136 291.476 30.9773C292.374 31.8295 292.828 32.858 292.839 34.0625C292.828 34.8807 292.612 35.625 292.192 36.2955C291.783 36.9659 291.243 37.5 290.572 37.8977C289.913 38.2955 289.192 38.4943 288.408 38.4943ZM303.033 38.4943C301.805 38.4943 300.754 38.0625 299.879 37.1989C299.016 36.3352 298.589 35.2898 298.601 34.0625C298.589 32.858 299.016 31.8295 299.879 30.9773C300.754 30.1136 301.805 29.6818 303.033 29.6818C304.192 29.6818 305.214 30.1136 306.101 30.9773C306.999 31.8295 307.453 32.858 307.464 34.0625C307.453 34.8807 307.237 35.625 306.817 36.2955C306.408 36.9659 305.868 37.5 305.197 37.8977C304.538 38.2955 303.817 38.4943 303.033 38.4943ZM317.658 38.4943C316.43 38.4943 315.379 38.0625 314.504 37.1989C313.641 36.3352 313.214 35.2898 313.226 34.0625C313.214 32.858 313.641 31.8295 314.504 30.9773C315.379 30.1136 316.43 29.6818 317.658 29.6818C318.817 29.6818 319.839 30.1136 320.726 30.9773C321.624 31.8295 322.078 32.858 322.089 34.0625C322.078 34.8807 321.862 35.625 321.442 36.2955C321.033 36.9659 320.493 37.5 319.822 37.8977C319.163 38.2955 318.442 38.4943 317.658 38.4943Z" fill="#0064CC"/>
</svg>
