<svg width="497" height="49" viewBox="0 0 497 49" fill="none" xmlns="http://www.w3.org/2000/svg">
<path d="M23.5511 14.4943C23.358 13.7784 23.0739 13.1477 22.6989 12.6023C22.3239 12.0455 21.8636 11.5739 21.3182 11.1875C20.7727 10.8011 20.1477 10.5114 19.4432 10.3182C18.7386 10.1136 17.9659 10.0114 17.125 10.0114C15.4318 10.0114 13.9659 10.4205 12.7273 11.2386C11.5 12.0568 10.5511 13.25 9.88068 14.8182C9.21023 16.375 8.875 18.267 8.875 20.4943C8.875 22.733 9.19886 24.642 9.84659 26.2216C10.4943 27.8011 11.4318 29.0057 12.6591 29.8352C13.8864 30.6648 15.375 31.0795 17.125 31.0795C18.6705 31.0795 19.9773 30.8295 21.0455 30.3295C22.125 29.8182 22.9432 29.0966 23.5 28.1648C24.0568 27.233 24.3352 26.1364 24.3352 24.875L25.9034 25.0625H17.4148V18.9091H32.4659V23.5284C32.4659 26.6534 31.8011 29.3295 30.4716 31.5568C29.1534 33.7841 27.3352 35.4943 25.017 36.6875C22.7102 37.8807 20.0568 38.4773 17.0568 38.4773C13.7273 38.4773 10.8011 37.7557 8.27841 36.3125C5.75568 34.8693 3.78977 32.8125 2.38068 30.142C0.971591 27.4602 0.267045 24.2784 0.267045 20.5966C0.267045 17.733 0.693182 15.1932 1.54545 12.9773C2.39773 10.75 3.58523 8.86364 5.10795 7.31818C6.64205 5.77273 8.41477 4.60227 10.4261 3.80682C12.4489 3.01136 14.625 2.61364 16.9545 2.61364C18.9773 2.61364 20.858 2.90341 22.5966 3.48295C24.3466 4.0625 25.892 4.88068 27.233 5.9375C28.5852 6.99432 29.6818 8.25 30.5227 9.70455C31.3636 11.1591 31.8864 12.7557 32.0909 14.4943H23.5511ZM49.6776 38.4943C46.9389 38.4943 44.5753 37.9545 42.5866 36.875C40.6094 35.7841 39.0866 34.233 38.0185 32.2216C36.9616 30.1989 36.4332 27.7955 36.4332 25.0114C36.4332 22.3068 36.9673 19.9432 38.0355 17.9205C39.1037 15.8864 40.6094 14.3068 42.5526 13.1818C44.4957 12.0455 46.7855 11.4773 49.4219 11.4773C51.2855 11.4773 52.9901 11.767 54.5355 12.3466C56.081 12.9261 57.4162 13.7841 58.5412 14.9205C59.6662 16.0568 60.5412 17.4602 61.1662 19.1307C61.7912 20.7898 62.1037 22.6932 62.1037 24.8409V26.9205H39.348V22.0795H54.348C54.3366 21.1932 54.1264 20.4034 53.7173 19.7102C53.3082 19.017 52.7457 18.4773 52.0298 18.0909C51.3253 17.6932 50.5128 17.4943 49.5923 17.4943C48.6605 17.4943 47.8253 17.7045 47.0866 18.125C46.348 18.5341 45.7628 19.0966 45.331 19.8125C44.8991 20.517 44.6719 21.3182 44.6491 22.2159V27.142C44.6491 28.2102 44.8594 29.1477 45.2798 29.9545C45.7003 30.75 46.2969 31.3693 47.0696 31.8125C47.8423 32.2557 48.7628 32.4773 49.831 32.4773C50.5696 32.4773 51.2401 32.375 51.8423 32.1705C52.4446 31.9659 52.9616 31.6648 53.3935 31.267C53.8253 30.8693 54.1491 30.3807 54.3651 29.8011L62.0185 30.0227C61.7003 31.7386 61.0014 33.233 59.9219 34.5057C58.8537 35.767 57.4503 36.75 55.7116 37.4545C53.973 38.1477 51.9616 38.4943 49.6776 38.4943ZM81.1392 11.8182V17.9545H64.6222V11.8182H81.1392ZM68.0824 5.54545H76.4176V29.767C76.4176 30.2784 76.4972 30.6932 76.6562 31.0114C76.8267 31.3182 77.071 31.5398 77.3892 31.6761C77.7074 31.8011 78.0881 31.8636 78.5312 31.8636C78.8494 31.8636 79.1847 31.8352 79.5369 31.7784C79.9006 31.7102 80.1733 31.6534 80.3551 31.608L81.6165 37.625C81.2188 37.7386 80.6563 37.8807 79.929 38.0511C79.2131 38.2216 78.3551 38.3295 77.3551 38.375C75.4006 38.4659 73.7244 38.2386 72.3267 37.6932C70.9403 37.1364 69.8778 36.2727 69.1392 35.1023C68.4119 33.9318 68.0597 32.4602 68.0824 30.6875V5.54545ZM100.17 11.8182V17.9545H83.6534V11.8182H100.17ZM87.1136 5.54545H95.4489V29.767C95.4489 30.2784 95.5284 30.6932 95.6875 31.0114C95.858 31.3182 96.1023 31.5398 96.4205 31.6761C96.7386 31.8011 97.1193 31.8636 97.5625 31.8636C97.8807 31.8636 98.2159 31.8352 98.5682 31.7784C98.9318 31.7102 99.2045 31.6534 99.3864 31.608L100.648 37.625C100.25 37.7386 99.6875 37.8807 98.9602 38.0511C98.2443 38.2216 97.3864 38.3295 96.3864 38.375C94.4318 38.4659 92.7557 38.2386 91.358 37.6932C89.9716 37.1364 88.9091 36.2727 88.1705 35.1023C87.4432 33.9318 87.0909 32.4602 87.1136 30.6875V5.54545ZM104.423 38V11.8182H112.759V38H104.423ZM108.599 8.76705C107.429 8.76705 106.423 8.38068 105.582 7.60795C104.741 6.82386 104.321 5.88068 104.321 4.77841C104.321 3.6875 104.741 2.75568 105.582 1.98295C106.423 1.19886 107.429 0.806816 108.599 0.806816C109.781 0.806816 110.787 1.19886 111.616 1.98295C112.457 2.75568 112.878 3.6875 112.878 4.77841C112.878 5.88068 112.457 6.82386 111.616 7.60795C110.787 8.38068 109.781 8.76705 108.599 8.76705ZM126.399 23.0682V38H118.064V11.8182H125.99V16.625H126.28C126.859 15.0227 127.848 13.767 129.246 12.858C130.643 11.9375 132.308 11.4773 134.24 11.4773C136.081 11.4773 137.678 11.892 139.03 12.7216C140.393 13.5398 141.45 14.6875 142.2 16.1648C142.962 17.6307 143.337 19.3466 143.325 21.3125V38H134.99V22.9489C135.001 21.4943 134.632 20.358 133.882 19.5398C133.143 18.7216 132.115 18.3125 130.797 18.3125C129.922 18.3125 129.149 18.5057 128.479 18.892C127.82 19.267 127.308 19.8068 126.945 20.5114C126.592 21.2159 126.411 22.0682 126.399 23.0682ZM160.69 48.3636C158.202 48.3636 156.071 48.017 154.298 47.3239C152.526 46.6307 151.134 45.6818 150.122 44.4773C149.111 43.2727 148.503 41.9091 148.298 40.3864L156.19 39.9432C156.338 40.4773 156.611 40.9432 157.009 41.3409C157.418 41.7386 157.946 42.0455 158.594 42.2614C159.253 42.4773 160.026 42.5852 160.912 42.5852C162.31 42.5852 163.463 42.2443 164.372 41.5625C165.293 40.892 165.753 39.7159 165.753 38.0341V33.4318H165.463C165.134 34.2386 164.634 34.9602 163.963 35.5966C163.293 36.233 162.457 36.733 161.457 37.0966C160.469 37.4602 159.332 37.642 158.048 37.642C156.139 37.642 154.389 37.1989 152.798 36.3125C151.219 35.4148 149.952 34.0284 148.997 32.1534C148.054 30.267 147.582 27.8409 147.582 24.875C147.582 21.8182 148.071 19.3011 149.048 17.3239C150.026 15.3352 151.304 13.8636 152.884 12.9091C154.474 11.9545 156.185 11.4773 158.014 11.4773C159.389 11.4773 160.565 11.7159 161.543 12.1932C162.531 12.6591 163.344 13.2614 163.98 14C164.616 14.7386 165.099 15.5057 165.429 16.3011H165.668V11.8182H173.969V38.1023C173.969 40.3182 173.412 42.1875 172.298 43.7102C171.185 45.233 169.628 46.3864 167.628 47.1705C165.628 47.9659 163.315 48.3636 160.69 48.3636ZM160.946 31.5739C161.957 31.5739 162.821 31.3068 163.537 30.7727C164.253 30.2386 164.804 29.4716 165.19 28.4716C165.577 27.4716 165.77 26.2727 165.77 24.875C165.77 23.4545 165.577 22.233 165.19 21.2102C164.815 20.1761 164.264 19.3807 163.537 18.8239C162.821 18.267 161.957 17.9886 160.946 17.9886C159.912 17.9886 159.037 18.2727 158.321 18.8409C157.605 19.4091 157.06 20.2102 156.685 21.2443C156.321 22.267 156.139 23.4773 156.139 24.875C156.139 26.2727 156.327 27.4716 156.702 28.4716C157.077 29.4716 157.616 30.2386 158.321 30.7727C159.037 31.3068 159.912 31.5739 160.946 31.5739ZM189.595 38V11.8182H197.692V16.5909H197.964C198.442 14.8636 199.22 13.5795 200.3 12.7386C201.379 11.8864 202.635 11.4602 204.067 11.4602C204.453 11.4602 204.851 11.4886 205.26 11.5455C205.669 11.5909 206.05 11.6648 206.402 11.767V19.0114C206.004 18.875 205.482 18.767 204.834 18.6875C204.197 18.608 203.629 18.5682 203.129 18.5682C202.141 18.5682 201.249 18.7898 200.453 19.233C199.669 19.6648 199.05 20.2727 198.595 21.0568C198.152 21.8295 197.93 22.7386 197.93 23.7841V38H189.595ZM220.678 38.4943C217.939 38.4943 215.575 37.9545 213.587 36.875C211.609 35.7841 210.087 34.233 209.018 32.2216C207.962 30.1989 207.433 27.7955 207.433 25.0114C207.433 22.3068 207.967 19.9432 209.036 17.9205C210.104 15.8864 211.609 14.3068 213.553 13.1818C215.496 12.0455 217.786 11.4773 220.422 11.4773C222.286 11.4773 223.99 11.767 225.536 12.3466C227.081 12.9261 228.416 13.7841 229.541 14.9205C230.666 16.0568 231.541 17.4602 232.166 19.1307C232.791 20.7898 233.104 22.6932 233.104 24.8409V26.9205H210.348V22.0795H225.348C225.337 21.1932 225.126 20.4034 224.717 19.7102C224.308 19.017 223.746 18.4773 223.03 18.0909C222.325 17.6932 221.513 17.4943 220.592 17.4943C219.661 17.4943 218.825 17.7045 218.087 18.125C217.348 18.5341 216.763 19.0966 216.331 19.8125C215.899 20.517 215.672 21.3182 215.649 22.2159V27.142C215.649 28.2102 215.859 29.1477 216.28 29.9545C216.7 30.75 217.297 31.3693 218.07 31.8125C218.842 32.2557 219.763 32.4773 220.831 32.4773C221.57 32.4773 222.24 32.375 222.842 32.1705C223.445 31.9659 223.962 31.6648 224.393 31.267C224.825 30.8693 225.149 30.3807 225.365 29.8011L233.018 30.0227C232.7 31.7386 232.001 33.233 230.922 34.5057C229.854 35.767 228.45 36.75 226.712 37.4545C224.973 38.1477 222.962 38.4943 220.678 38.4943ZM244.741 38.4432C243.071 38.4432 241.588 38.1648 240.293 37.608C239.009 37.0398 237.991 36.1875 237.241 35.0511C236.503 33.9034 236.134 32.4659 236.134 30.7386C236.134 29.2841 236.389 28.0568 236.901 27.0568C237.412 26.0568 238.116 25.2443 239.014 24.6193C239.912 23.9943 240.946 23.5227 242.116 23.2045C243.287 22.875 244.537 22.6534 245.866 22.5398C247.355 22.4034 248.554 22.2614 249.463 22.1136C250.372 21.9545 251.031 21.733 251.44 21.4489C251.861 21.1534 252.071 20.7386 252.071 20.2045V20.1193C252.071 19.2443 251.77 18.5682 251.168 18.0909C250.565 17.6136 249.753 17.375 248.73 17.375C247.628 17.375 246.741 17.6136 246.071 18.0909C245.401 18.5682 244.974 19.2273 244.793 20.0682L237.105 19.7955C237.332 18.2045 237.918 16.7841 238.861 15.5341C239.815 14.2727 241.122 13.2841 242.781 12.5682C244.452 11.8409 246.457 11.4773 248.798 11.4773C250.469 11.4773 252.009 11.6761 253.418 12.0739C254.827 12.4602 256.054 13.0284 257.099 13.7784C258.145 14.517 258.952 15.4261 259.52 16.5057C260.099 17.5852 260.389 18.8182 260.389 20.2045V38H252.548V34.3523H252.344C251.878 35.2386 251.281 35.9886 250.554 36.6023C249.838 37.2159 248.991 37.6761 248.014 37.983C247.048 38.2898 245.957 38.4432 244.741 38.4432ZM247.315 32.9886C248.213 32.9886 249.02 32.8068 249.736 32.4432C250.463 32.0795 251.043 31.5795 251.474 30.9432C251.906 30.2955 252.122 29.5455 252.122 28.6932V26.2045C251.884 26.3295 251.594 26.4432 251.253 26.5455C250.923 26.6477 250.56 26.7443 250.162 26.8352C249.764 26.9261 249.355 27.0057 248.935 27.0739C248.514 27.142 248.111 27.2045 247.724 27.2614C246.94 27.3864 246.27 27.5795 245.713 27.8409C245.168 28.1023 244.747 28.4432 244.452 28.8636C244.168 29.2727 244.026 29.7614 244.026 30.3295C244.026 31.1932 244.332 31.8523 244.946 32.3068C245.571 32.7614 246.361 32.9886 247.315 32.9886ZM275.048 38.375C273.116 38.375 271.361 37.875 269.781 36.875C268.202 35.875 266.94 34.375 265.997 32.375C265.054 30.375 264.582 27.892 264.582 24.9261C264.582 21.8466 265.071 19.3125 266.048 17.3239C267.026 15.3352 268.304 13.8636 269.884 12.9091C271.474 11.9545 273.185 11.4773 275.014 11.4773C276.389 11.4773 277.565 11.7159 278.543 12.1932C279.52 12.6591 280.327 13.2614 280.963 14C281.599 14.7386 282.082 15.5057 282.412 16.3011H282.582V3.09091H290.918V38H282.668V33.7557H282.412C282.06 34.5625 281.56 35.3182 280.912 36.0227C280.264 36.7273 279.452 37.2955 278.474 37.7273C277.509 38.1591 276.366 38.375 275.048 38.375ZM277.946 31.8807C278.957 31.8807 279.821 31.5966 280.537 31.0284C281.253 30.4489 281.804 29.6364 282.19 28.5909C282.577 27.5455 282.77 26.3182 282.77 24.9091C282.77 23.4773 282.577 22.2443 282.19 21.2102C281.815 20.1761 281.264 19.3807 280.537 18.8239C279.821 18.267 278.957 17.9886 277.946 17.9886C276.912 17.9886 276.037 18.2727 275.321 18.8409C274.605 19.4091 274.06 20.2102 273.685 21.2443C273.321 22.2784 273.139 23.5 273.139 24.9091C273.139 26.3182 273.327 27.5455 273.702 28.5909C274.077 29.6364 274.616 30.4489 275.321 31.0284C276.037 31.5966 276.912 31.8807 277.946 31.8807ZM301.286 47.8182C300.286 47.8182 299.342 47.7386 298.456 47.5795C297.57 47.4318 296.808 47.233 296.172 46.983L298.013 40.9318C298.831 41.2045 299.57 41.3636 300.229 41.4091C300.899 41.4545 301.473 41.3466 301.95 41.0852C302.439 40.8352 302.814 40.3864 303.075 39.7386L303.399 38.9545L294.092 11.8182H302.82L307.643 30.5H307.916L312.808 11.8182H321.587L311.717 40.5057C311.24 41.9375 310.564 43.1989 309.689 44.2898C308.825 45.392 307.706 46.2557 306.331 46.8807C304.967 47.5057 303.286 47.8182 301.286 47.8182ZM349.976 11.8182V17.9545H333.135V11.8182H349.976ZM336.646 38V10.4886C336.646 8.46591 337.027 6.78977 337.788 5.46023C338.55 4.11932 339.607 3.11932 340.959 2.46023C342.311 1.78977 343.874 1.45454 345.646 1.45454C346.805 1.45454 347.896 1.54545 348.919 1.72727C349.953 1.89773 350.72 2.05114 351.22 2.1875L349.891 8.28977C349.584 8.1875 349.209 8.10227 348.766 8.03409C348.334 7.96591 347.925 7.93182 347.538 7.93182C346.561 7.93182 345.891 8.14773 345.527 8.57955C345.163 9.01136 344.982 9.60227 344.982 10.3523V38H336.646ZM365.364 38.4943C362.614 38.4943 360.25 37.9318 358.273 36.8068C356.307 35.6705 354.79 34.0909 353.722 32.0682C352.665 30.0341 352.136 27.6761 352.136 24.9943C352.136 22.3011 352.665 19.9432 353.722 17.9205C354.79 15.8864 356.307 14.3068 358.273 13.1818C360.25 12.0455 362.614 11.4773 365.364 11.4773C368.114 11.4773 370.472 12.0455 372.438 13.1818C374.415 14.3068 375.932 15.8864 376.989 17.9205C378.057 19.9432 378.591 22.3011 378.591 24.9943C378.591 27.6761 378.057 30.0341 376.989 32.0682C375.932 34.0909 374.415 35.6705 372.438 36.8068C370.472 37.9318 368.114 38.4943 365.364 38.4943ZM365.415 32.2045C366.415 32.2045 367.261 31.8977 367.955 31.2841C368.648 30.6705 369.176 29.8182 369.54 28.7273C369.915 27.6364 370.102 26.375 370.102 24.9432C370.102 23.4886 369.915 22.2159 369.54 21.125C369.176 20.0341 368.648 19.1818 367.955 18.5682C367.261 17.9545 366.415 17.6477 365.415 17.6477C364.381 17.6477 363.506 17.9545 362.79 18.5682C362.085 19.1818 361.545 20.0341 361.17 21.125C360.807 22.2159 360.625 23.4886 360.625 24.9432C360.625 26.375 360.807 27.6364 361.17 28.7273C361.545 29.8182 362.085 30.6705 362.79 31.2841C363.506 31.8977 364.381 32.2045 365.415 32.2045ZM382.861 38V11.8182H390.957V16.5909H391.23C391.707 14.8636 392.486 13.5795 393.565 12.7386C394.645 11.8864 395.901 11.4602 397.332 11.4602C397.719 11.4602 398.116 11.4886 398.526 11.5455C398.935 11.5909 399.315 11.6648 399.668 11.767V19.0114C399.27 18.875 398.747 18.767 398.099 18.6875C397.463 18.608 396.895 18.5682 396.395 18.5682C395.406 18.5682 394.514 18.7898 393.719 19.233C392.935 19.6648 392.315 20.2727 391.861 21.0568C391.418 21.8295 391.196 22.7386 391.196 23.7841V38H382.861ZM418.473 47.8182C417.473 47.8182 416.53 47.7386 415.643 47.5795C414.757 47.4318 413.996 47.233 413.359 46.983L415.2 40.9318C416.018 41.2045 416.757 41.3636 417.416 41.4091C418.087 41.4545 418.661 41.3466 419.138 41.0852C419.626 40.8352 420.001 40.3864 420.263 39.7386L420.587 38.9545L411.28 11.8182H420.007L424.831 30.5H425.104L429.996 11.8182H438.774L428.905 40.5057C428.428 41.9375 427.751 43.1989 426.876 44.2898C426.013 45.392 424.893 46.2557 423.518 46.8807C422.155 47.5057 420.473 47.8182 418.473 47.8182ZM453.348 38.4943C450.598 38.4943 448.234 37.9318 446.257 36.8068C444.291 35.6705 442.774 34.0909 441.706 32.0682C440.649 30.0341 440.121 27.6761 440.121 24.9943C440.121 22.3011 440.649 19.9432 441.706 17.9205C442.774 15.8864 444.291 14.3068 446.257 13.1818C448.234 12.0455 450.598 11.4773 453.348 11.4773C456.098 11.4773 458.456 12.0455 460.422 13.1818C462.399 14.3068 463.916 15.8864 464.973 17.9205C466.041 19.9432 466.575 22.3011 466.575 24.9943C466.575 27.6761 466.041 30.0341 464.973 32.0682C463.916 34.0909 462.399 35.6705 460.422 36.8068C458.456 37.9318 456.098 38.4943 453.348 38.4943ZM453.399 32.2045C454.399 32.2045 455.246 31.8977 455.939 31.2841C456.632 30.6705 457.161 29.8182 457.524 28.7273C457.899 27.6364 458.087 26.375 458.087 24.9432C458.087 23.4886 457.899 22.2159 457.524 21.125C457.161 20.0341 456.632 19.1818 455.939 18.5682C455.246 17.9545 454.399 17.6477 453.399 17.6477C452.365 17.6477 451.49 17.9545 450.774 18.5682C450.07 19.1818 449.53 20.0341 449.155 21.125C448.791 22.2159 448.609 23.4886 448.609 24.9432C448.609 26.375 448.791 27.6364 449.155 28.7273C449.53 29.8182 450.07 30.6705 450.774 31.2841C451.49 31.8977 452.365 32.2045 453.399 32.2045ZM487.737 26.6989V11.8182H496.055V38H488.112V33.125H487.839C487.26 34.7273 486.271 36 484.874 36.9432C483.487 37.875 481.811 38.3409 479.845 38.3409C478.061 38.3409 476.493 37.9318 475.141 37.1136C473.788 36.2955 472.737 35.1534 471.987 33.6875C471.237 32.2102 470.857 30.483 470.845 28.5057V11.8182H479.18V26.8693C479.192 28.2898 479.567 29.4091 480.305 30.2273C481.044 31.0455 482.05 31.4545 483.322 31.4545C484.152 31.4545 484.896 31.2727 485.555 30.9091C486.226 30.5341 486.754 29.9943 487.141 29.2898C487.538 28.5739 487.737 27.7102 487.737 26.6989Z" fill="#0064CC"/>
</svg>
