<svg width="214" height="178" viewBox="0 0 214 178" fill="none" xmlns="http://www.w3.org/2000/svg">
<g clip-path="url(#clip0_8613_21085)">
<path d="M213.65 88.9596C213.65 140.24 170.698 180.775 119.832 176.825C88.8125 174.422 64.8808 159.473 48.7706 132.565C48.21 131.617 47.6761 130.643 47.1956 129.642C45.1535 125.398 44.8599 121.18 49.5181 118.684C54.1763 116.188 57.9802 117.91 60.5296 122.621C66.873 134.424 76.2018 144.356 87.5845 151.425C129.842 178.119 189.024 152.119 197.833 102.894C205.241 61.7044 179.547 24.0651 138.478 15.9233C109.447 10.1706 78.6819 24.3988 62.3982 51.1467C61.4772 52.655 60.7832 54.3367 59.7287 55.7516C57.2194 59.1284 54.0294 60.8635 49.9585 58.5278C45.8876 56.192 44.7531 52.7084 46.8886 48.3572C53.0516 35.7204 62.2847 24.8307 73.7434 16.6841C128.334 -22.4501 205.414 11.1049 213.623 77.6277C213.859 81.401 213.868 85.1852 213.65 88.9596Z" fill="#0064CC"/>
<path d="M34.9426 81.0315H77.7473C79.7447 80.9468 81.7452 80.9691 83.7402 81.0982C88.2383 81.5787 90.5874 84.4484 90.4139 88.7195C90.2403 92.9906 88.0114 95.7268 83.2464 95.7135C69.8991 95.7135 56.6186 95.7135 43.3113 95.7135H34.9426C34.9426 99.5308 35.5165 102.881 34.7691 105.924C34.1151 108.594 32.5134 111.917 30.3378 113.105C28.4692 114.106 24.505 113.359 22.6497 111.89C15.7225 106.378 9.10226 100.452 2.73561 94.2719C-0.934891 90.7082 -1.06837 86.3837 2.96251 82.6465C9.30247 76.7603 15.4823 70.6339 22.236 65.295C23.4795 64.4864 24.8845 63.9588 26.353 63.749C27.8214 63.5392 29.318 63.6523 30.7382 64.0804C32.6869 64.8012 34.1685 68.2715 34.7424 70.7541C35.4765 73.7038 34.9426 76.9072 34.9426 81.0315Z" fill="#0064CC"/>
</g>
<defs>
<clipPath id="clip0_8613_21085">
<rect width="213.81" height="177.092" fill="white"/>
</clipPath>
</defs>
</svg>
